<?xml version="1.0" standalone="no"?>
<!DOCTYPE svg PUBLIC "-//W3C//DTD SVG 20010904//EN"
 "http://www.w3.org/TR/2001/REC-SVG-20010904/DTD/svg10.dtd">
<svg version="1.0" xmlns="http://www.w3.org/2000/svg"
 width="720.000000pt" height="720.000000pt" viewBox="0 0 720.000000 720.000000"
 preserveAspectRatio="xMidYMid meet">
<metadata>
Created by potrace 1.14, written by Peter Selinger 2001-2017
</metadata>
<g transform="translate(0.000000,720.000000) scale(0.100000,-0.100000)"
fill="#000000" stroke="none">
<path d="M3916 7113 c-12 -13 7 -22 25 -13 10 6 19 7 19 2 0 -5 10 -8 23 -7
12 1 28 -2 35 -8 8 -6 12 -6 12 2 0 7 8 8 23 2 12 -4 30 -7 40 -6 9 2 17 0 17
-4 0 -4 15 -6 33 -6 17 1 51 -4 75 -11 23 -6 42 -10 42 -7 0 3 7 0 15 -7 8 -7
15 -10 15 -7 0 3 26 -1 57 -8 32 -7 61 -11 65 -9 5 3 8 1 8 -3 0 -8 19 -12 68
-14 12 -1 22 -5 22 -10 0 -5 5 -9 10 -9 6 0 10 5 10 10 0 10 -51 25 -66 20 -4
-1 -10 2 -13 8 -6 8 -53 19 -266 58 -130 24 -259 37 -269 27z"/>
<path d="M5042 7039 c-7 -10 -12 -26 -12 -34 0 -8 -7 -15 -15 -15 -16 0 -48
-54 -38 -64 4 -3 1 -6 -6 -6 -6 0 -11 -6 -10 -12 6 -46 1 -48 -55 -23 -77 34
-268 95 -278 89 -4 -3 -8 -1 -8 4 0 5 -10 12 -22 15 -13 2 -32 8 -42 12 -16 7
-18 5 -13 -9 4 -10 3 -15 -3 -11 -6 3 -10 1 -10 -4 0 -6 9 -11 19 -11 11 0 23
-5 26 -10 5 -8 12 -7 23 2 12 10 14 10 8 1 -6 -12 11 -18 37 -14 4 0 7 -4 7
-10 0 -5 4 -8 9 -4 5 3 20 1 33 -4 47 -19 63 -24 71 -23 4 1 7 -6 7 -15 0 -15
2 -16 10 -3 6 9 10 10 10 3 0 -6 9 -15 20 -18 11 -4 18 -11 15 -16 -5 -8 24
-14 48 -10 5 1 6 -3 2 -9 -3 -5 3 -10 13 -10 11 0 23 -7 26 -16 3 -8 10 -12
16 -9 5 3 7 0 4 -8 -3 -8 0 -18 7 -23 8 -5 10 -3 4 7 -7 11 -6 12 7 2 8 -7 17
-11 20 -8 2 3 5 -1 5 -9 0 -8 -6 -12 -14 -9 -7 3 -13 0 -13 -6 0 -6 3 -10 8
-10 19 3 33 -2 27 -11 -3 -6 1 -7 9 -4 9 3 16 1 16 -5 0 -6 3 -10 8 -9 4 2 18
-5 32 -15 13 -9 19 -17 13 -17 -6 0 -19 7 -27 16 -9 8 -16 11 -16 6 0 -4 -22
-7 -50 -6 -27 1 -50 -2 -50 -8 0 -5 -5 -6 -11 -2 -18 11 -129 11 -136 1 -3 -6
-1 -7 5 -3 7 4 12 1 12 -9 0 -9 -5 -13 -11 -10 -6 4 -5 -2 3 -14 7 -12 16 -21
21 -21 4 0 6 -4 2 -9 -3 -5 2 -16 10 -24 8 -9 15 -18 15 -21 0 -7 64 -91 85
-112 8 -9 15 -20 15 -26 0 -5 7 -8 15 -4 8 3 14 2 12 -2 -1 -4 8 -18 21 -32
12 -13 22 -30 22 -37 0 -7 6 -13 13 -13 8 0 7 -4 -3 -10 -13 -9 -13 -10 0 -10
8 0 21 -9 28 -21 8 -12 9 -18 3 -15 -5 4 -9 -2 -8 -14 1 -11 5 -20 10 -20 5 0
4 -7 -3 -15 -9 -10 -9 -15 -1 -15 6 0 11 -7 11 -16 0 -8 5 -12 10 -9 6 3 10
-1 10 -9 0 -9 5 -16 10 -16 6 0 10 -7 10 -15 0 -8 5 -15 10 -15 6 0 21 -9 33
-21 34 -32 150 -112 142 -98 -6 9 -3 11 8 6 10 -3 17 -2 17 4 0 6 6 7 13 3 8
-5 8 -2 -2 9 -12 15 -11 17 5 17 17 0 17 1 -1 13 -10 8 -15 19 -11 25 9 15 34
4 41 -19 4 -10 9 -18 13 -17 14 4 72 -21 72 -31 0 -6 7 -11 16 -11 10 0 14 -6
10 -15 -3 -8 0 -15 6 -15 6 0 9 -3 5 -6 -9 -9 -56 29 -57 45 0 8 -3 12 -6 8
-4 -3 -13 1 -21 9 -16 16 -37 9 -27 -8 4 -7 2 -8 -4 -4 -7 4 -12 1 -12 -9 0
-8 6 -18 14 -21 8 -3 12 -12 9 -20 -3 -8 -1 -14 4 -14 4 0 20 -10 34 -22 14
-13 34 -28 44 -34 10 -6 28 -23 39 -38 18 -23 18 -28 6 -36 -8 -5 -11 -12 -8
-16 4 -3 0 -13 -8 -21 -9 -10 -12 -23 -8 -37 4 -11 7 -27 7 -33 0 -7 4 -13 8
-13 10 0 18 -50 7 -56 -4 -3 -6 -10 -3 -15 11 -16 -7 -10 -22 9 -8 9 -11 11
-7 3 4 -9 3 -12 -4 -7 -6 4 -9 13 -5 21 3 8 1 15 -5 15 -5 0 -12 9 -15 21 -3
12 -10 18 -16 14 -6 -3 -17 -3 -23 2 -7 4 -22 9 -32 10 -10 2 -27 12 -36 23
-10 11 -25 20 -34 20 -9 0 -16 5 -16 11 0 5 -4 7 -10 4 -5 -3 -10 -2 -10 4 0
5 -8 12 -17 15 -26 8 -78 56 -99 91 -18 28 -54 44 -54 23 0 -5 -5 -6 -11 -3
-6 4 -8 9 -5 12 8 8 -21 34 -36 31 -34 -8 -47 -48 -22 -69 8 -6 14 -16 14 -22
0 -5 14 -23 30 -39 17 -16 28 -33 25 -38 -4 -6 0 -10 7 -10 7 -1 0 -6 -15 -13
-16 -7 -28 -15 -28 -19 1 -5 0 -10 0 -13 -1 -3 -3 -9 -4 -15 -1 -5 -3 -14 -4
-19 0 -5 -8 -17 -17 -26 -15 -15 -15 -17 4 -22 14 -3 19 -10 15 -21 -4 -9 -2
-13 4 -9 5 4 20 -4 32 -17 15 -16 19 -26 12 -31 -8 -4 -6 -11 4 -21 8 -9 12
-20 9 -26 -4 -6 -2 -8 4 -4 6 3 13 2 17 -4 13 -20 43 -10 55 20 7 16 16 28 20
25 4 -3 11 2 14 11 3 9 11 12 18 8 10 -6 11 -4 1 7 -7 7 -13 21 -13 31 0 10
-4 18 -8 18 -11 0 -54 81 -47 88 24 24 88 -10 74 -39 -5 -10 -3 -24 6 -35 8
-11 15 -34 15 -51 0 -31 11 -40 37 -30 4 1 10 -11 15 -28 4 -17 4 -31 -2 -33
-14 -5 0 -32 17 -32 8 0 11 -5 7 -12 -4 -7 -3 -8 4 -4 7 4 12 14 12 22 0 8 3
13 8 13 18 -3 32 2 32 12 0 5 -6 7 -12 3 -10 -5 -10 -4 -2 5 6 7 20 13 32 14
11 0 20 4 20 7 -2 18 4 21 19 9 13 -11 15 -11 9 -1 -5 8 -1 18 10 27 26 19 46
1 37 -34 -8 -34 -10 -36 -27 -22 -17 14 -29 -8 -15 -30 5 -8 9 -21 9 -29 0
-12 -2 -13 -9 -1 -7 11 -11 10 -20 -5 -6 -11 -11 -15 -11 -10 0 5 -7 3 -15 -4
-8 -7 -12 -16 -9 -21 3 -5 0 -9 -7 -9 -8 0 -8 -4 1 -15 7 -8 17 -12 23 -8 6 3
7 1 3 -5 -4 -7 -2 -12 4 -12 6 0 9 -3 7 -7 -3 -5 15 -8 39 -7 24 0 44 -3 44
-8 0 -4 5 -8 11 -8 6 0 23 -9 39 -20 15 -11 31 -16 35 -12 5 4 5 1 1 -5 -4 -7
-3 -13 3 -13 5 0 15 -16 22 -35 7 -19 17 -35 21 -35 4 0 8 -5 8 -12 0 -6 8
-20 17 -30 16 -18 16 -18 -2 -12 -13 5 -16 4 -11 -4 7 -13 -22 -28 -71 -36
-14 -3 -29 -9 -32 -14 -3 -5 -13 -9 -21 -9 -25 -1 -44 -7 -58 -21 -8 -7 -17
-10 -22 -7 -4 3 -12 -1 -17 -8 -13 -16 -14 -55 -2 -62 5 -4 6 -12 3 -18 -4 -7
-4 -9 1 -5 8 8 55 -56 55 -75 0 -7 4 -17 9 -23 5 -5 12 -30 15 -56 8 -68 17
-99 27 -92 5 3 9 0 9 -6 0 -6 5 -8 10 -5 6 3 10 -3 10 -14 0 -12 5 -21 11 -21
5 0 8 -4 5 -9 -16 -26 61 -63 89 -42 13 10 51 24 43 15 -4 -3 5 -17 19 -30 23
-21 26 -32 26 -87 -1 -78 -6 -102 -23 -102 -15 0 -19 -18 -26 -134 -3 -59 -1
-88 8 -99 11 -13 11 -14 -2 -7 -10 6 -9 2 3 -12 15 -18 18 -54 7 -83 -1 -3 -2
-8 -1 -12 0 -5 -4 -8 -10 -8 -5 0 -8 -4 -4 -9 3 -5 -2 -16 -10 -24 -8 -9 -15
-19 -15 -22 0 -4 -15 -21 -32 -37 -18 -17 -26 -27 -18 -23 13 6 13 5 0 -7 -8
-7 -16 -35 -18 -63 -2 -27 -9 -53 -15 -57 -7 -4 -13 -12 -13 -18 -1 -5 -2 -11
-4 -12 -1 -2 -2 -26 -4 -54 -1 -29 -8 -59 -15 -68 -7 -9 -10 -16 -6 -16 4 0 3
-6 -3 -12 -6 -7 -11 -16 -11 -20 -1 -5 -1 -9 -2 -10 -2 -8 -9 -37 -14 -63 -11
-52 -12 -186 -2 -192 6 -3 7 -1 3 5 -4 6 1 10 13 9 11 0 17 -5 15 -9 -3 -4 0
-8 6 -8 7 0 9 -12 6 -30 -2 -17 0 -30 5 -30 6 0 7 -5 4 -10 -3 -5 -2 -10 3
-10 5 0 9 -6 9 -12 1 -7 6 -27 11 -43 8 -28 8 -88 -2 -125 -2 -8 -7 -30 -11
-47 -4 -18 -12 -33 -17 -33 -5 0 -7 -4 -3 -9 3 -6 -1 -13 -9 -18 -20 -11 -17
-24 9 -48 12 -11 27 -29 33 -40 11 -21 9 -75 -2 -94 -5 -7 1 -11 16 -11 39 0
68 -12 68 -27 0 -8 5 -11 10 -8 6 3 10 2 10 -2 0 -5 7 -18 16 -29 8 -10 13
-12 9 -4 -4 10 -2 9 8 -3 8 -9 20 -17 26 -17 7 0 9 -4 6 -10 -3 -5 3 -10 13
-10 11 0 26 -8 33 -17 7 -10 10 -15 5 -11 -4 4 -14 1 -21 -5 -10 -10 -9 -15 4
-27 10 -8 20 -23 24 -32 3 -10 13 -18 22 -18 8 0 15 -5 15 -11 0 -5 5 -7 10
-4 6 3 10 -1 10 -10 0 -9 5 -13 10 -10 6 3 10 1 10 -5 0 -6 5 -8 10 -5 6 4 17
1 25 -5 8 -7 15 -9 15 -4 0 5 6 2 13 -6 7 -8 21 -16 32 -18 11 -1 29 -7 40
-11 70 -29 75 -31 75 -18 0 9 2 9 8 0 5 -8 13 -9 22 -3 8 6 11 10 6 10 -6 0
-1 7 10 15 10 8 15 15 11 15 -9 0 43 50 52 50 3 0 19 11 34 26 15 14 32 22 37
19 6 -3 10 -2 10 4 0 5 9 8 20 6 11 -2 20 0 20 6 0 5 5 9 11 9 5 0 7 -6 3 -12
-4 -7 3 -4 17 7 42 35 58 53 52 59 -4 3 1 6 10 6 9 0 16 3 16 8 -3 18 2 33 9
28 4 -3 16 11 27 30 10 19 22 34 27 34 4 0 8 7 8 17 0 9 3 14 6 10 3 -3 19 7
34 23 15 16 31 26 34 23 3 -4 6 1 6 11 0 26 20 9 39 -33 21 -48 48 -47 81 2
28 42 40 48 33 15 -3 -17 -2 -19 5 -10 13 18 23 -8 16 -40 -3 -13 -7 -39 -9
-58 -2 -19 -4 -35 -5 -35 -1 0 -3 -20 -5 -45 -2 -25 -8 -60 -14 -77 -6 -22 -6
-33 0 -33 6 0 7 -5 3 -11 -6 -10 -2 -21 30 -89 10 -20 15 -165 7 -165 -3 0
-11 -34 -13 -57 -1 -10 -5 -18 -8 -18 -3 0 -6 -12 -7 -28 -4 -43 -8 -55 -28
-92 -11 -19 -18 -38 -17 -42 1 -5 -3 -8 -8 -8 -6 0 -10 -9 -10 -21 0 -11 -4
-18 -9 -14 -5 3 -12 1 -15 -4 -4 -5 -1 -13 5 -17 6 -3 7 -9 2 -13 -5 -3 -22
-33 -38 -66 -17 -33 -34 -63 -40 -67 -6 -5 -6 -8 -1 -8 6 0 5 -5 -2 -12 -7 -7
-12 -20 -12 -30 0 -10 -5 -18 -11 -18 -5 0 -8 -4 -4 -9 3 -5 1 -12 -4 -15 -5
-4 -8 -14 -7 -24 2 -9 -2 -20 -8 -24 -8 -6 -8 -8 0 -8 11 0 74 101 164 259 86
152 173 372 268 681 49 160 95 393 107 545 4 44 8 94 11 110 9 68 12 517 4
600 -12 109 -47 338 -59 380 -5 17 -16 64 -26 105 -9 41 -19 82 -22 90 -3 8
-8 24 -10 35 -2 11 -13 52 -25 90 -12 39 -22 72 -22 75 -1 3 -5 11 -9 18 -5 6
-6 12 -3 12 3 0 -11 44 -30 98 -20 53 -39 108 -44 122 -19 61 -115 249 -210
415 -57 99 -108 189 -114 200 -6 12 -21 34 -34 50 -13 17 -55 73 -95 125 -40
52 -111 134 -158 182 -48 49 -84 88 -81 88 3 0 -5 9 -17 19 -12 11 -22 22 -22
25 1 14 -143 156 -244 240 -235 197 -421 320 -710 471 -73 39 -109 63 -107 72
2 9 -1 12 -8 8 -6 -3 -10 -3 -9 2 1 4 1 17 0 28 -1 17 -3 17 -11 5 -7 -12 -11
-12 -20 -2 -5 6 -7 10 -3 7 3 -3 18 5 32 17 14 13 19 15 12 6 -10 -14 -10 -18
-1 -18 7 0 10 -7 6 -15 -3 -8 -1 -15 4 -15 6 0 11 8 12 18 5 58 4 88 -4 98 -5
7 -3 14 7 18 8 3 15 13 15 21 0 9 -4 14 -9 11 -5 -3 -8 2 -7 10 2 23 -28 25
-42 3z m133 -421 c5 4 5 2 1 -5 -3 -6 2 -16 11 -22 15 -8 13 -9 -12 -7 -43 3
-59 14 -44 32 8 10 15 11 24 4 6 -5 16 -6 20 -2z m14 -195 c97 -95 103 -101
119 -95 6 2 12 0 12 -6 0 -12 50 -35 80 -36 14 0 35 -9 48 -20 12 -12 32 -29
42 -38 11 -10 21 -17 23 -15 2 1 11 -6 21 -15 10 -10 13 -18 7 -18 -19 0 -12
-19 18 -47 45 -43 69 -62 73 -58 1 2 4 -8 4 -21 1 -13 -1 -22 -5 -19 -4 2 -15
-5 -24 -15 -9 -11 -12 -22 -7 -25 15 -9 -9 -48 -25 -41 -10 3 -12 0 -8 -11 4
-11 2 -14 -5 -9 -7 4 -12 3 -12 -3 0 -12 -52 -3 -61 10 -3 6 -10 11 -15 12 -5
1 -9 7 -10 13 -2 15 25 12 35 -4 3 -6 16 -10 27 -10 20 2 25 26 11 58 -4 8 -8
24 -10 36 -2 19 -47 85 -47 70 0 -4 -11 4 -24 17 -30 31 -57 82 -48 92 4 5 2
5 -4 2 -6 -3 -18 3 -27 14 -14 16 -26 20 -52 19 -3 -1 -13 6 -22 15 -8 9 -22
14 -30 11 -8 -3 -12 -2 -9 3 3 4 -8 18 -24 30 -17 12 -30 28 -30 35 0 8 -7 16
-15 20 -9 3 -12 12 -8 22 4 11 3 15 -5 10 -6 -3 -14 -1 -18 5 -4 8 -3 9 4 5 7
-4 12 -2 12 3 0 6 -7 11 -15 11 -20 0 -76 50 -69 61 9 14 11 12 93 -68z m247
-88 c-1 -8 -8 -21 -16 -28 -12 -10 -12 -9 -1 6 11 14 11 17 0 17 -11 0 -11 2
1 10 19 12 19 13 16 -5z m758 -463 c3 -5 -1 -9 -9 -9 -8 0 -13 3 -10 5 3 3 -3
11 -13 19 -15 13 -15 13 5 3 12 -5 24 -14 27 -18z m73 -49 c7 7 63 -47 63 -61
0 -6 5 -12 11 -14 5 -2 11 -10 12 -18 2 -8 6 -20 9 -25 4 -6 2 -17 -4 -25 -8
-12 -9 -11 -4 4 5 15 4 17 -7 8 -8 -7 -17 -8 -21 -4 -8 7 0 -34 15 -82 13 -41
12 -46 -11 -46 -13 0 -25 11 -33 28 -6 15 -20 36 -29 47 -9 11 -26 31 -37 44
-12 13 -21 28 -21 33 0 5 -6 15 -12 23 -24 24 -52 67 -54 80 -2 11 3 11 22 3
13 -6 21 -15 18 -19 -3 -5 2 -9 10 -9 9 0 16 -4 16 -10 0 -5 7 -10 15 -10 8 0
15 5 15 11 0 5 -4 8 -9 5 -5 -4 -7 3 -4 14 3 11 -1 28 -8 37 -12 14 -10 14 14
-2 15 -10 30 -15 34 -12z m-202 -373 c21 -13 44 -23 51 -23 8 0 14 -5 14 -11
0 -6 4 -5 9 3 6 9 11 10 15 3 4 -6 14 -8 23 -5 11 4 14 3 9 -5 -4 -7 0 -15 11
-18 38 -12 62 -27 57 -36 -3 -4 -1 -8 5 -8 6 0 8 -7 5 -15 -4 -10 0 -13 15
-10 14 3 18 0 14 -12 -5 -12 -7 -12 -14 -1 -5 7 -9 9 -9 3 0 -5 -6 -3 -13 5
-7 9 -19 15 -27 15 -8 -1 -19 2 -25 5 -5 4 -31 13 -57 21 -27 7 -48 17 -48 21
0 4 -4 8 -10 8 -14 0 -82 48 -96 68 -10 15 -9 17 10 17 13 -1 40 -12 61 -25z
m324 -46 c12 -19 26 -32 31 -29 6 3 10 1 10 -5 0 -14 40 -67 40 -54 0 5 5 1
11 -8 5 -10 15 -18 21 -18 6 0 17 -8 24 -17 9 -12 13 -14 14 -5 0 7 4 11 9 8
5 -3 11 1 15 9 3 8 10 15 17 15 6 0 8 -7 5 -16 -3 -8 -2 -13 3 -9 5 3 12 -1
15 -7 3 -7 4 -2 1 12 -2 14 1 32 6 40 9 13 10 12 5 -2 -3 -10 -1 -18 5 -18 6
0 8 -7 5 -16 -3 -8 -2 -12 4 -9 6 3 10 0 10 -9 0 -8 5 -16 11 -18 5 -2 11 -11
12 -20 2 -9 8 -22 14 -29 6 -8 13 -23 15 -34 1 -11 7 -23 12 -27 13 -9 17 -40
4 -32 -6 4 -8 -1 -4 -14 4 -11 2 -23 -4 -27 -6 -4 -5 -17 6 -37 9 -16 11 -27
5 -23 -6 3 -14 -1 -17 -10 -4 -9 -12 -14 -19 -11 -8 3 -16 -1 -19 -9 -5 -14
-46 -17 -46 -3 0 4 -6 5 -14 2 -10 -4 -13 -23 -12 -67 1 -49 6 -68 23 -86 12
-13 20 -28 17 -35 -7 -18 -42 -37 -49 -26 -9 15 -37 12 -30 -2 4 -7 -3 -2 -15
12 -12 14 -18 18 -14 10 6 -12 4 -12 -12 1 -20 17 -58 16 -79 -1 -8 -7 -21 -7
-38 -1 -14 5 -28 7 -31 4 -3 -4 -6 -1 -6 6 0 7 -4 10 -9 7 -5 -4 -8 6 -6 21 4
36 -8 66 -36 92 -12 11 -23 32 -23 46 -1 14 -4 24 -6 23 -3 -1 -15 4 -27 10
-19 11 -24 8 -43 -23 -21 -34 -56 -62 -72 -57 -5 1 -8 -5 -8 -14 0 -8 -4 -13
-9 -10 -10 6 -63 -40 -79 -69 -8 -14 -11 -15 -12 -5 0 8 -11 -1 -24 -20 -13
-19 -21 -41 -18 -49 3 -8 1 -12 -4 -8 -6 3 -16 -10 -23 -29 -7 -19 -17 -32
-22 -29 -5 3 -6 -1 -3 -10 5 -12 0 -15 -22 -14 -16 1 -42 -5 -58 -14 -33 -18
-46 -14 -46 11 0 17 67 69 82 65 4 -2 8 3 9 10 0 6 3 23 5 37 3 14 7 53 9 87
4 54 1 66 -16 82 -12 11 -18 24 -14 30 3 6 2 11 -4 11 -5 0 -8 9 -6 20 2 11
-1 20 -6 20 -6 0 -6 7 -1 18 5 9 7 23 4 31 -3 8 0 11 7 7 6 -4 11 -1 11 8 0 9
4 16 8 16 4 0 8 9 8 20 0 11 -4 20 -9 20 -4 0 -6 4 -2 10 3 5 -2 18 -12 29
-18 21 -28 60 -15 62 4 0 15 2 25 4 9 2 15 0 12 -5 -3 -4 4 -6 15 -3 24 6 35
41 27 88 -3 19 -2 37 3 40 14 8 62 -14 86 -40 13 -14 30 -25 39 -25 8 0 15 -4
15 -8 0 -4 9 -9 20 -10 44 -4 50 -6 50 -14 0 -5 4 -7 9 -3 5 3 12 1 16 -5 4
-6 11 -8 16 -5 5 4 9 1 9 -5 0 -6 4 -9 9 -5 5 3 12 1 16 -5 4 -6 10 -8 15 -5
10 6 45 -41 52 -70 5 -22 -11 -44 -28 -38 -15 5 -12 -53 4 -69 7 -7 22 -13 35
-14 12 -2 33 -6 46 -10 14 -4 22 -3 19 2 -24 44 -37 84 -33 102 2 12 -1 22 -6
22 -6 0 -8 4 -4 9 3 5 1 12 -4 16 -6 3 -8 11 -5 18 2 7 -7 24 -21 39 -28 31
-32 43 -11 35 10 -4 13 -1 9 9 -3 8 1 14 10 14 27 0 47 -12 47 -27 0 -8 5 -11
10 -8 6 3 13 -1 16 -9 3 -9 13 -16 22 -16 8 0 13 -3 10 -6 -7 -7 22 -38 50
-53 16 -8 19 -7 18 7 -1 9 -7 27 -14 40 -7 12 -10 22 -7 22 14 0 -29 62 -50
72 -13 6 -22 15 -19 20 3 4 -2 11 -10 14 -9 3 -14 10 -11 14 3 4 -2 21 -10 36
-11 22 -12 30 -2 36 7 4 13 8 14 8 0 0 10 -16 22 -36z m188 -20 c-3 -4 0 -13
8 -21 8 -8 15 -22 15 -31 0 -11 -6 -7 -19 13 -17 28 -18 45 -4 45 4 0 4 -3 0
-6z m-3 -63 c3 -5 -2 -15 -12 -22 -9 -7 -14 -9 -10 -5 4 5 3 15 -3 23 -9 10
-8 13 4 13 9 0 18 -4 21 -9z m286 -442 c0 -6 5 -7 12 -3 7 4 8 3 4 -4 -4 -7
-1 -12 6 -13 10 0 10 -2 -1 -6 -11 -5 -11 -7 0 -15 11 -8 11 -9 1 -6 -8 2 -13
7 -12 12 1 5 -2 12 -7 15 -4 3 -17 17 -28 30 l-20 24 23 -12 c12 -6 22 -16 22
-22z m-806 -1033 c8 3 16 1 20 -4 6 -10 -24 -9 -42 2 -6 4 -12 13 -12 19 0 7
5 4 11 -5 5 -9 16 -15 23 -12z m44 -11 c-3 -3 -9 2 -12 12 -6 14 -5 15 5 6 7
-7 10 -15 7 -18z"/>
<path d="M5135 6610 c-3 -5 -5 -10 -3 -11 33 -8 38 -7 27 7 -14 17 -16 17 -24
4z"/>
<path d="M5994 5292 c-16 -11 -11 -26 21 -66 25 -31 33 -36 42 -24 9 11 5 23
-21 55 -18 23 -37 38 -42 35z"/>
<path d="M6059 5193 c-1 -5 -1 -11 0 -15 0 -5 -4 -8 -10 -8 -8 0 -9 -4 0 -13
6 -8 8 -16 5 -20 -3 -3 4 -8 15 -12 11 -3 23 -14 26 -24 7 -25 45 -67 45 -52
0 7 4 10 9 7 13 -9 4 43 -13 69 -17 25 -64 75 -71 75 -3 0 -6 -3 -6 -7z"/>
<path d="M6528 5173 c-21 -5 -23 -14 -5 -32 10 -11 9 -12 -3 -6 -13 8 -13 6
-2 -8 11 -13 17 -14 33 -4 10 6 19 15 19 19 0 13 -12 38 -19 37 -3 -1 -14 -3
-23 -6z"/>
<path d="M4353 6985 c0 -8 4 -15 9 -15 4 0 8 4 8 9 0 6 -4 12 -8 15 -5 3 -9
-1 -9 -9z"/>
<path d="M4380 6986 c0 -3 9 -10 20 -16 11 -6 20 -8 20 -6 0 3 -9 10 -20 16
-11 6 -20 8 -20 6z"/>
<path d="M4453 6965 c0 -8 4 -15 9 -15 4 0 8 4 8 9 0 6 -4 12 -8 15 -5 3 -9
-1 -9 -9z"/>
<path d="M4495 6946 c11 -7 24 -14 29 -14 5 0 12 -5 16 -12 4 -6 19 -13 33
-16 21 -3 27 -1 26 13 0 11 -3 13 -6 6 -3 -10 -8 -9 -19 1 -8 8 -23 13 -33 11
-11 -2 -25 3 -32 11 -6 8 -16 14 -22 14 -6 0 -3 -6 8 -14z"/>
<path d="M2448 6936 c-10 -7 -14 -17 -10 -22 4 -4 0 -3 -10 4 -11 9 -18 10
-23 2 -3 -6 -11 -8 -16 -5 -5 4 -9 2 -9 -3 0 -5 -14 -12 -31 -16 -41 -8 -222
-86 -334 -144 -49 -25 -107 -55 -127 -65 -20 -10 -48 -29 -63 -43 -28 -26 -40
-31 -29 -11 5 8 2 7 -9 -2 -12 -9 -14 -17 -7 -26 6 -8 6 -15 -2 -23 -9 -9 -9
-12 0 -12 11 0 16 13 13 33 0 4 3 7 9 7 5 0 10 -4 10 -9 0 -15 -45 -61 -59
-61 -7 0 -9 -4 -6 -10 3 -5 -1 -10 -9 -10 -10 0 -13 -6 -9 -17 3 -10 3 -15 -2
-11 -4 4 -21 -5 -36 -21 -15 -16 -29 -28 -31 -27 -2 1 -19 -13 -38 -33 -19
-19 -29 -31 -23 -27 9 5 11 2 7 -7 -3 -8 -13 -14 -22 -13 -8 0 -22 -10 -29
-24 -7 -14 -13 -21 -13 -17 0 12 -30 -20 -30 -32 0 -6 -3 -10 -7 -9 -5 2 -19
-5 -33 -15 -13 -9 -20 -17 -14 -17 5 0 14 3 20 8 5 4 1 -1 -9 -10 -11 -10 -26
-18 -34 -18 -9 0 -11 -5 -7 -12 6 -10 4 -10 -8 0 -13 10 -18 10 -24 1 -4 -8
-3 -9 4 -5 7 4 12 2 12 -3 0 -6 -5 -11 -11 -11 -5 0 -7 -4 -4 -10 3 -5 1 -10
-5 -10 -6 0 -9 -4 -6 -8 7 -12 -96 -112 -115 -112 -5 0 -7 -5 -3 -12 5 -8 2
-9 -10 -5 -10 4 -15 3 -11 -3 3 -6 1 -10 -4 -10 -6 0 -10 -3 -9 -7 2 -9 -53
-100 -76 -125 -9 -10 -16 -20 -16 -22 0 -2 -18 -22 -40 -45 -22 -22 -40 -46
-40 -52 0 -5 -3 -8 -7 -6 -5 3 -14 -1 -21 -9 -7 -8 -10 -14 -6 -14 3 0 -15
-20 -40 -45 -26 -25 -51 -45 -57 -45 -6 0 -7 -5 -4 -10 3 -6 -1 -13 -9 -16 -9
-3 -16 -13 -16 -20 0 -8 -7 -17 -15 -20 -8 -4 -15 -12 -15 -20 0 -7 -9 -18
-21 -24 -11 -7 -18 -14 -16 -17 3 -3 -8 -18 -24 -34 -16 -15 -29 -35 -29 -44
0 -8 -5 -15 -11 -15 -5 0 -7 -4 -4 -10 3 -5 2 -10 -4 -10 -6 0 -13 -11 -17
-25 -3 -14 -10 -25 -15 -25 -5 0 -9 -5 -9 -11 0 -6 -16 -45 -36 -85 -20 -41
-37 -79 -38 -86 -1 -7 -4 -17 -7 -23 -4 -5 -5 -20 -4 -32 1 -13 -1 -23 -5 -23
-4 0 -7 -17 -7 -38 0 -36 -26 -124 -45 -148 -4 -6 -9 -25 -11 -42 -2 -17 -9
-38 -17 -46 -7 -9 -9 -16 -5 -16 4 0 2 -6 -4 -13 -6 -8 -8 -17 -5 -20 3 -3 2
-11 -2 -19 -4 -7 -8 -24 -9 -38 -1 -14 -5 -32 -10 -39 -6 -10 -4 -12 6 -6 11
7 12 6 2 -7 -7 -8 -10 -18 -6 -21 3 -4 -4 -7 -16 -7 -12 0 -19 -4 -16 -10 3
-5 3 -10 -2 -10 -4 0 -8 -18 -8 -40 0 -22 3 -40 6 -40 5 0 4 -14 -3 -82 -1
-16 -5 -28 -8 -28 -3 0 -6 -8 -7 -17 -3 -41 -5 -189 -3 -198 1 -5 2 -14 1 -18
-1 -5 3 -5 9 -2 6 4 9 13 6 21 -3 8 -1 14 5 14 6 0 9 7 5 15 -3 8 -2 15 3 15
4 0 7 17 6 38 -1 20 3 60 10 87 6 28 10 56 8 62 -2 6 0 14 6 17 6 4 8 13 4 21
-3 9 1 15 8 15 11 0 11 3 -1 10 -8 5 -10 10 -5 10 6 0 10 12 11 28 0 15 4 42
7 60 5 22 4 32 -5 32 -8 0 -6 6 5 17 9 9 18 15 20 12 3 -2 0 -40 -5 -84 -5
-44 -10 -91 -11 -105 -2 -14 -7 -31 -11 -39 -7 -10 -5 -12 3 -7 18 11 10 -26
-9 -42 -8 -8 -10 -11 -4 -8 6 3 9 -8 7 -32 -7 -65 -7 -97 -1 -107 11 -19 3
-232 -10 -247 -6 -8 -9 -18 -5 -21 3 -4 2 -7 -4 -7 -6 0 -9 -22 -7 -52 2 -54
5 -66 23 -127 6 -19 8 -37 6 -42 -3 -4 -2 -9 2 -11 5 -1 18 -22 30 -46 12 -24
17 -39 10 -35 -7 4 0 -8 16 -27 15 -19 31 -39 35 -45 5 -5 21 -36 36 -67 16
-32 32 -55 37 -52 5 3 9 -2 9 -10 0 -15 35 -32 57 -28 19 4 54 -18 48 -29 -4
-5 -1 -9 5 -9 6 0 9 -4 6 -8 -2 -4 1 -21 9 -37 43 -98 58 -125 66 -125 5 0 9
-8 9 -17 0 -9 3 -14 6 -10 6 6 17 -1 55 -35 10 -10 24 -18 31 -18 6 0 9 -3 5
-6 -3 -3 7 -19 23 -36 16 -16 37 -49 47 -74 10 -24 22 -44 26 -44 5 0 5 -4 2
-10 -3 -6 -1 -10 6 -10 7 0 9 -3 6 -7 -4 -3 0 -17 8 -29 11 -17 12 -24 2 -27
-8 -4 -8 -6 0 -6 6 -1 9 -10 6 -20 -3 -10 1 -30 8 -42 7 -13 12 -27 11 -31 -1
-5 7 -8 19 -8 11 0 18 -4 15 -9 -3 -5 6 -17 22 -28 27 -18 31 -26 40 -76 3
-18 10 -26 21 -25 10 2 15 -3 13 -12 -3 -12 -1 -12 9 -3 13 13 39 6 39 -11 0
-15 45 -66 59 -66 6 0 11 -4 11 -10 0 -11 33 -14 43 -3 4 3 2 12 -4 19 -15 18
10 54 37 54 17 0 26 -10 37 -44 8 -25 13 -47 9 -50 -3 -3 0 -6 7 -6 7 0 11 -6
8 -14 -3 -7 0 -22 7 -32 7 -11 14 -43 15 -73 3 -55 4 -68 16 -112 5 -21 0 -30
-29 -53 -20 -15 -36 -23 -36 -19 -1 4 -8 -4 -16 -19 -8 -16 -19 -28 -25 -28
-6 0 -7 -4 -4 -10 4 -6 -5 -10 -20 -10 -20 0 -27 -6 -31 -30 -4 -16 -10 -30
-15 -30 -5 0 -5 -7 -2 -17 4 -10 2 -14 -4 -10 -12 8 -11 -42 2 -63 6 -9 4 -11
-5 -5 -10 6 -11 4 -4 -6 4 -8 9 -19 10 -26 1 -6 11 -22 23 -34 19 -21 19 -23
3 -35 -9 -7 -21 -10 -26 -7 -5 4 -6 1 -2 -5 4 -7 3 -12 -2 -12 -5 0 -7 -11 -4
-25 2 -14 9 -25 14 -25 5 0 6 -6 1 -12 -11 -19 -14 -50 -4 -44 5 3 11 -4 14
-15 3 -12 10 -18 16 -14 6 3 11 2 11 -3 0 -5 11 -21 25 -36 14 -15 25 -32 25
-37 0 -6 6 -17 13 -24 30 -35 37 -45 30 -45 -4 0 0 -5 10 -11 9 -6 15 -14 12
-20 -4 -5 -1 -9 4 -9 6 0 11 -6 11 -14 0 -8 6 -21 13 -28 7 -7 21 -30 30 -51
10 -20 22 -37 27 -37 6 0 10 -5 10 -11 0 -7 10 -22 23 -34 30 -32 58 -68 60
-80 3 -22 132 -155 149 -155 5 0 6 -4 3 -10 -3 -6 1 -7 9 -4 9 3 16 2 16 -2 0
-5 20 -20 45 -33 24 -13 42 -28 38 -34 -3 -5 -1 -7 5 -3 6 3 13 2 17 -4 4 -6
11 -7 17 -4 6 4 8 2 5 -3 -4 -6 0 -14 9 -17 8 -3 12 -11 8 -17 -4 -8 -3 -9 5
-5 14 9 91 -50 91 -70 0 -8 5 -14 11 -14 5 0 8 -3 6 -7 -3 -5 0 -19 6 -33 5
-14 11 -41 13 -60 2 -19 6 -44 8 -55 3 -11 5 -24 5 -29 -1 -5 4 -12 10 -15 5
-4 13 -31 16 -61 4 -30 9 -59 13 -65 4 -5 7 -13 8 -17 1 -5 2 -9 4 -10 1 -2 3
-12 5 -22 2 -11 12 -31 23 -46 11 -14 19 -37 18 -50 -1 -14 4 -33 12 -42 9
-10 11 -18 6 -18 -5 0 2 -6 16 -13 14 -8 24 -19 22 -25 -1 -7 5 -12 14 -12 10
0 14 -6 11 -14 -4 -10 0 -12 14 -9 11 3 27 -1 37 -10 34 -31 279 -110 332
-106 42 2 52 0 44 -13 -4 -6 -3 -8 4 -4 6 3 9 16 7 28 -4 17 -2 19 7 10 15
-15 32 -16 23 -2 -3 5 3 10 14 10 11 0 22 4 25 8 4 7 86 8 94 2 1 -1 12 -3 25
-3 12 -1 25 -6 29 -11 5 -7 8 -7 8 1 0 7 7 10 15 7 8 -4 21 -1 29 5 7 6 17 7
21 3 5 -4 5 -1 1 6 -4 7 -2 12 6 13 7 0 3 4 -10 10 -13 5 -20 13 -17 19 4 6
10 8 14 5 8 -4 110 -7 144 -4 9 1 17 5 17 9 0 3 10 6 22 7 12 1 26 9 30 18 5
8 13 13 19 10 5 -4 9 -2 9 3 0 5 15 8 34 7 19 0 33 3 30 6 -2 4 5 10 16 14 11
3 20 11 20 16 0 6 4 8 8 5 4 -2 18 9 31 25 13 16 27 27 31 24 13 -8 32 22 30
47 -3 35 -1 48 8 46 4 -1 30 9 57 22 28 13 59 25 70 27 11 1 35 4 53 6 19 2
37 8 40 13 9 12 24 15 91 15 31 1 62 6 70 12 12 9 13 9 7 0 -5 -9 -2 -11 8 -7
8 3 17 12 20 20 3 8 13 14 23 14 10 0 26 14 35 31 10 17 21 28 26 25 4 -2 14
4 21 16 10 16 10 19 -1 13 -7 -3 -5 0 4 8 10 8 15 17 11 20 -3 4 -1 7 5 7 7 0
12 7 12 15 0 8 5 15 12 15 6 0 8 3 5 7 -4 3 3 14 15 22 23 16 28 31 31 88 1
17 4 30 8 27 4 -2 7 17 7 43 0 34 5 49 18 56 10 6 28 20 41 33 12 12 24 19 27
16 3 -3 6 1 6 8 0 15 46 60 61 60 6 0 8 4 5 9 -3 5 6 12 20 15 15 4 24 9 21
12 -6 7 46 59 56 56 4 -1 7 5 7 13 0 8 5 15 12 15 6 0 8 3 5 6 -3 4 -1 16 5
28 12 23 19 76 9 76 -3 0 -6 22 -6 48 0 27 -4 49 -10 50 -95 10 -130 18 -182
45 -34 17 -60 33 -58 36 3 2 -12 11 -32 18 -43 16 -123 22 -168 13 -16 -4 -48
-2 -70 3 -55 13 -87 14 -106 5 -18 -8 -44 13 -32 25 3 4 -2 7 -12 7 -10 0 -15
3 -12 7 16 15 -117 65 -178 67 -22 1 -46 5 -54 10 -11 7 -12 6 -6 -5 5 -8 -1
-5 -13 5 -28 24 -129 31 -166 12 -14 -7 -23 -15 -21 -18 3 -3 -6 -13 -20 -22
-14 -9 -25 -13 -25 -8 0 16 50 63 60 57 5 -3 7 0 4 9 -3 8 3 19 15 26 12 6 21
7 21 3 0 -4 6 3 13 17 14 27 11 61 -5 57 -14 -3 -57 83 -53 105 2 10 -1 21 -7
24 -7 5 -8 2 -3 -6 5 -8 4 -11 -3 -6 -6 3 -9 15 -7 26 2 12 -3 21 -16 25 -11
4 -31 18 -44 31 -14 14 -25 21 -25 17 0 -4 -5 0 -11 10 -6 9 -14 15 -19 12 -4
-3 -11 2 -14 11 -3 8 -10 13 -15 9 -5 -3 -12 -1 -16 5 -4 6 -11 8 -16 5 -5 -4
-9 -2 -9 4 0 11 -20 18 -75 26 -22 4 -50 8 -62 10 -13 2 -25 -1 -28 -6 -4 -5
-14 -5 -26 1 -11 6 -24 8 -29 5 -6 -3 -10 -1 -10 4 0 6 -6 11 -14 11 -8 0 -21
9 -29 20 -8 11 -17 17 -20 13 -4 -3 -7 -1 -7 5 0 6 -9 13 -19 17 -17 5 -35 38
-32 58 1 4 -5 7 -13 7 -8 0 -18 9 -21 21 -4 11 -9 18 -12 16 -3 -3 -27 8 -55
24 -27 16 -46 24 -42 17 4 -9 2 -8 -7 1 -11 10 -11 15 -1 18 17 6 15 16 -8 43
-19 22 -19 24 -2 37 10 9 11 12 2 7 -12 -6 -13 -4 -2 7 14 16 16 43 2 34 -5
-3 -10 -2 -10 2 0 5 -12 8 -27 7 -14 0 -44 2 -65 6 -25 5 -38 4 -38 -4 0 -6
-4 -5 -9 3 -5 8 -11 9 -15 3 -3 -5 -17 -8 -31 -7 -14 2 -28 -1 -31 -7 -4 -6
-10 -5 -15 3 -7 11 -9 10 -9 -5 0 -15 -3 -16 -14 -7 -11 9 -15 9 -19 -1 -4
-11 -6 -10 -6 0 -1 7 -5 10 -11 7 -6 -3 -10 -1 -10 4 0 6 -6 11 -14 11 -8 0
-16 7 -20 15 -3 8 -9 15 -13 14 -4 -1 -10 -1 -13 0 -3 2 -25 4 -49 6 -45 4
-75 21 -65 36 3 5 1 8 -5 7 -5 -2 -21 12 -35 31 -14 19 -26 32 -26 28 0 -4 -8
1 -18 10 -11 10 -17 21 -16 24 2 3 -4 6 -12 6 -8 0 -22 -14 -30 -30 -9 -16
-18 -26 -21 -23 -4 3 -12 1 -20 -5 -10 -9 -13 -8 -13 0 0 7 -4 9 -10 6 -6 -3
-7 1 -4 9 5 14 31 21 57 17 5 -1 6 3 2 9 -3 6 -11 7 -17 4 -6 -4 -8 1 -4 14 5
15 1 21 -16 27 -38 12 -41 12 -88 -5 -25 -10 -51 -15 -57 -13 -7 3 -13 0 -13
-5 0 -6 -21 -9 -46 -8 -25 1 -48 -2 -51 -8 -4 -5 -1 -6 7 -1 8 5 11 4 6 -3 -4
-6 -13 -9 -21 -5 -10 3 -15 -1 -15 -15 0 -22 -54 -85 -75 -88 -7 -1 -24 10
-37 24 -13 14 -16 22 -8 18 8 -4 4 1 -9 12 -14 11 -31 17 -40 14 -9 -3 -12 -1
-7 6 6 11 -12 17 -36 13 -5 0 -8 4 -8 9 0 14 -36 12 -52 -3 -7 -7 -23 -11 -34
-8 -26 7 -74 63 -74 86 0 9 -4 14 -9 11 -11 -7 -23 22 -15 35 3 5 0 9 -6 9 -6
0 -8 5 -5 10 3 6 2 10 -3 10 -5 0 -8 10 -8 23 1 12 -2 28 -7 35 -6 8 -5 12 2
12 7 0 10 4 7 8 -3 5 2 22 10 38 9 16 15 30 14 32 -4 8 14 92 20 92 4 0 5 11
2 25 -2 14 -9 25 -14 25 -6 0 -4 8 3 17 8 9 9 14 2 10 -7 -4 -15 5 -22 23 -6
19 -17 30 -29 30 -11 0 -22 6 -25 14 -3 8 -14 13 -24 11 -10 -1 -22 1 -28 5
-5 5 -21 10 -35 12 -14 1 -32 11 -41 20 -9 10 -20 14 -24 10 -5 -4 -4 0 1 8 5
8 9 25 9 36 0 12 7 30 15 40 13 16 13 17 0 10 -9 -4 -8 -2 2 7 10 8 15 17 12
20 -3 3 2 17 11 31 9 14 16 27 16 30 -1 4 0 8 0 11 1 3 3 10 4 15 1 6 4 12 5
15 3 6 7 22 9 35 0 5 5 9 10 7 5 -1 10 3 12 8 1 6 9 16 16 23 18 19 16 35 -6
52 -11 7 -18 17 -15 22 3 4 -2 8 -10 8 -9 0 -16 4 -16 8 0 5 -6 9 -12 9 -7 1
-32 3 -55 6 -31 3 -46 1 -55 -11 -11 -13 -11 -15 2 -8 11 6 11 4 -1 -6 -9 -7
-15 -20 -14 -28 2 -9 -9 -29 -22 -45 -14 -17 -22 -24 -18 -16 6 9 4 12 -3 7
-7 -4 -12 -15 -13 -24 0 -11 -3 -12 -6 -4 -2 6 -13 12 -24 12 -10 0 -19 4 -19
8 0 5 -14 7 -31 4 -21 -3 -34 1 -44 14 -7 10 -11 22 -9 26 3 5 0 8 -6 8 -6 0
-8 5 -5 10 3 6 2 10 -3 10 -5 0 -9 6 -9 13 -1 6 -4 35 -7 62 -14 116 -17 167
-9 162 5 -3 9 2 9 11 2 38 15 96 25 109 6 7 8 13 4 13 -4 0 -2 6 4 13 6 8 9
16 6 19 -3 3 7 18 22 34 18 19 27 41 28 64 3 70 49 126 103 124 22 -1 32 4 32
14 0 9 3 12 7 9 3 -4 12 -2 19 4 10 8 20 4 40 -16 14 -14 31 -24 37 -22 15 5
43 -22 51 -50 6 -19 11 -21 26 -13 13 7 20 6 22 -2 4 -12 38 -21 37 -10 -1 4
0 12 1 17 1 6 3 17 4 25 1 17 46 27 46 11 0 -5 9 -8 19 -6 11 2 25 -3 32 -11
6 -8 18 -14 25 -14 8 0 17 -13 20 -30 4 -16 10 -27 15 -24 5 3 9 1 9 -4 0 -6
9 -8 20 -5 11 3 27 0 35 -7 23 -19 43 -67 34 -81 -4 -7 -5 -17 -3 -21 3 -4 1
-8 -4 -8 -10 0 -11 -5 -16 -70 -1 -25 2 -56 9 -70 6 -14 10 -35 9 -48 -1 -12
3 -25 8 -28 4 -3 6 -10 3 -15 -4 -5 -1 -9 5 -9 6 0 8 -5 5 -10 -3 -5 -1 -10 4
-10 6 0 10 -5 9 -11 -5 -20 26 -17 47 4 11 11 14 17 7 13 -7 -5 -5 6 6 26 13
23 18 52 17 98 0 36 3 71 8 78 6 7 6 12 0 12 -5 0 -8 17 -6 38 2 20 6 60 8 87
7 72 7 75 17 75 4 0 8 7 8 15 0 17 34 50 53 50 7 1 11 7 9 14 -1 7 2 10 7 6 6
-3 30 7 53 22 24 15 45 28 48 28 35 8 60 19 60 24 0 4 7 8 15 9 8 1 22 3 30 4
9 1 14 7 11 15 -3 8 -2 12 2 9 5 -3 20 6 35 20 15 14 27 20 27 14 0 -7 5 -10
12 -8 7 3 13 22 13 44 1 58 15 104 31 104 8 0 14 7 14 15 0 8 5 15 12 15 6 0
9 2 6 6 -3 3 14 25 38 50 24 24 41 44 37 44 -3 0 4 9 17 20 13 11 20 20 16 20
-4 0 -1 6 6 14 7 8 16 12 21 9 4 -2 7 1 7 8 0 7 3 9 6 6 4 -3 15 -2 25 4 13 7
19 6 19 -1 0 -7 5 -8 13 -3 6 4 30 9 52 11 22 1 50 3 62 4 12 1 19 6 17 10 -3
4 0 8 7 8 7 0 5 6 -6 14 -23 17 -28 43 -8 50 9 4 11 2 7 -6 -4 -6 -3 -8 4 -4
6 3 9 15 7 26 -3 14 1 17 13 13 9 -3 14 -2 10 2 -8 9 51 49 59 41 3 -3 12 1
19 9 8 7 22 12 31 11 10 -2 24 4 32 11 8 8 22 12 32 10 10 -3 20 0 23 7 3 8 5
8 5 0 1 -7 -13 -25 -30 -42 -25 -24 -27 -30 -14 -36 9 -3 13 -11 9 -17 -4 -8
-3 -9 4 -5 7 4 12 3 12 -1 0 -5 15 -8 34 -8 19 0 33 2 32 5 -2 3 5 12 14 20
16 15 33 20 78 22 12 0 22 4 22 9 0 5 14 9 30 9 17 0 30 5 30 10 0 6 7 10 16
10 8 0 13 4 10 9 -3 5 1 12 10 15 9 4 13 2 8 -5 -3 -6 6 -3 21 7 23 15 26 22
21 53 -3 20 -6 44 -6 54 0 9 -6 16 -12 15 -18 -4 -55 -44 -63 -67 -7 -22 -48
-22 -84 0 -21 14 -46 57 -42 74 1 5 3 18 4 27 1 10 6 18 11 18 5 0 7 3 4 6 -3
3 5 17 17 30 25 27 24 50 -3 58 -42 13 -97 15 -111 3 -9 -6 -5 2 8 18 27 36
51 46 70 31 12 -9 13 -8 6 3 -6 10 -4 12 6 6 13 -9 61 -17 107 -19 12 -1 22
-3 22 -6 0 -11 120 -2 135 10 8 7 18 10 22 6 3 -3 12 3 20 14 8 11 25 20 38
20 30 0 24 -28 -14 -66 -14 -15 -19 -24 -11 -20 8 4 6 0 -4 -8 -11 -9 -16 -16
-12 -16 5 0 -8 -20 -29 -45 -22 -27 -35 -52 -31 -61 3 -8 10 -12 16 -9 5 3 10
1 10 -4 0 -6 5 -11 11 -11 5 0 7 6 3 13 -6 9 -4 9 7 1 8 -6 22 -12 32 -13 9
-1 28 -2 42 -3 13 -1 27 -8 30 -16 3 -8 0 -11 -8 -7 -6 4 -2 -3 11 -14 l23
-20 21 21 21 21 17 -23 c10 -13 22 -20 28 -16 6 3 12 1 14 -4 2 -7 10 -6 22 3
14 11 19 24 17 53 -2 21 -3 47 -3 56 1 9 -6 19 -14 22 -7 3 -11 12 -8 19 10
27 -34 54 -77 49 -4 -1 -10 10 -13 23 -4 14 -12 25 -18 25 -7 0 -3 7 8 15 10
8 15 15 10 15 -5 0 -3 7 4 16 8 8 14 40 15 71 2 51 0 59 -32 94 -20 22 -32 39
-28 39 5 0 -5 11 -21 25 -16 14 -33 25 -37 25 -12 0 -32 22 -40 43 -3 9 -11
17 -17 17 -7 0 -9 18 -6 50 3 28 1 50 -5 50 -5 0 -8 3 -8 8 1 4 0 9 -1 12 -2
5 -4 16 -14 55 -11 49 -24 69 -44 70 -12 1 -20 0 -18 -2 2 -2 -7 -16 -21 -31
-14 -15 -27 -25 -29 -22 -2 3 -10 -4 -19 -15 -9 -11 -13 -13 -9 -5 5 12 4 12
-6 3 -10 -9 -17 -8 -30 5 -17 16 -17 22 -5 76 13 55 13 58 -6 63 -10 3 -16 9
-13 14 3 5 1 9 -4 9 -10 0 -37 50 -33 64 1 4 -9 6 -23 2 -14 -3 -27 -2 -30 3
-4 5 -14 8 -24 6 -9 -1 -24 4 -33 11 -13 12 -18 10 -37 -11 -12 -14 -23 -31
-25 -38 -1 -6 -10 -19 -20 -28 -9 -9 -15 -23 -11 -32 3 -8 0 -18 -5 -22 -6 -3
-9 -11 -6 -16 3 -5 -1 -6 -9 -3 -9 4 -16 1 -16 -6 0 -7 -7 -10 -16 -6 -8 3
-12 2 -9 -4 3 -6 -1 -13 -9 -16 -9 -3 -16 -13 -16 -21 0 -9 5 -11 13 -7 9 6 9
5 0 -7 -10 -12 -10 -18 0 -29 10 -10 9 -11 -3 -5 -13 8 -13 6 -2 -7 7 -9 11
-22 10 -29 -4 -19 -68 -79 -84 -79 -8 0 -14 -5 -14 -10 0 -6 -6 -10 -12 -9
-42 5 -58 -3 -74 -37 -10 -20 -18 -46 -18 -59 -1 -12 -8 -31 -16 -41 -9 -10
-10 -15 -3 -10 9 5 11 2 7 -8 -3 -9 -10 -16 -14 -16 -5 0 -15 -7 -23 -15 -13
-12 -17 -12 -31 4 -26 29 -21 152 5 136 5 -4 9 1 9 9 0 8 11 27 25 42 22 24
26 52 5 39 -5 -3 -11 -1 -15 5 -3 5 -16 10 -28 10 -34 1 -71 35 -73 67 -2 38
-14 73 -26 73 -6 0 -19 10 -30 22 -14 17 -16 23 -6 30 7 4 9 8 4 8 -5 0 -3 6
3 13 6 8 8 17 4 20 -3 4 -1 7 6 7 7 0 9 5 4 13 -13 21 -12 35 4 41 8 3 11 11
7 18 -4 7 -4 10 1 6 4 -4 14 0 22 8 8 8 19 11 25 8 7 -4 8 -2 4 4 -7 11 38 38
57 34 4 -1 7 3 7 9 0 5 4 8 9 4 5 -3 12 -1 16 5 4 6 11 8 16 5 5 -4 9 -1 9 5
0 7 6 10 14 7 7 -3 18 -1 22 3 5 5 18 11 29 13 11 2 33 9 48 15 37 15 42 15
62 -4 12 -12 13 -19 4 -30 -8 -10 -7 -12 10 -9 12 2 21 -1 21 -7 0 -7 6 -6 15
2 8 7 15 9 15 5 0 -4 7 -2 16 6 10 8 18 9 22 2 12 -17 52 -35 52 -23 0 6 4 9
9 5 6 -3 9 4 8 15 -1 11 -6 20 -11 20 -5 0 -6 3 -3 7 4 3 1 13 -6 21 -10 13
-9 14 3 7 13 -8 13 -6 2 8 -8 9 -10 22 -6 28 4 8 3 9 -4 5 -7 -4 -12 -1 -12 8
0 8 5 18 12 22 7 4 8 3 4 -4 -5 -8 2 -10 21 -6 15 3 37 7 48 9 11 2 22 4 25 5
3 1 9 2 13 1 5 -1 6 3 2 9 -3 5 -1 10 4 10 6 0 10 4 9 9 -2 5 6 17 17 26 11 9
14 13 6 9 -9 -4 -12 -3 -8 3 4 6 20 16 37 23 16 7 28 16 25 20 -8 13 22 19 35
7 10 -9 11 -9 6 1 -4 6 -2 12 3 12 6 0 11 -5 11 -11 0 -5 4 -8 9 -5 5 3 14 0
20 -7 8 -11 3 -20 -25 -43 -34 -28 -69 -75 -45 -60 6 4 11 2 11 -4 0 -7 7 -7
23 2 12 7 26 11 30 10 5 -1 6 2 2 8 -3 5 1 13 9 16 9 3 13 11 9 18 -4 7 -1 6
9 -2 8 -7 16 -24 16 -38 0 -19 -3 -22 -9 -13 -7 11 -9 11 -9 -2 0 -13 -29 -30
-49 -28 -2 0 -9 -10 -15 -23 -10 -19 -19 -23 -51 -21 -22 1 -47 -1 -55 -4 -8
-3 -19 -7 -24 -7 -5 -1 -12 -11 -17 -23 -6 -17 -5 -23 6 -23 8 0 15 -3 15 -7
0 -5 11 -8 25 -8 14 0 25 3 25 8 0 4 6 6 12 5 19 -4 38 -25 38 -42 0 -9 6 -16
13 -16 8 0 9 -2 1 -8 -14 -9 1 -56 15 -47 5 3 21 -6 34 -19 14 -14 28 -22 31
-19 3 4 6 1 6 -5 0 -7 3 -11 8 -11 18 3 33 -2 28 -9 -3 -5 1 -9 9 -9 8 0 12 8
10 19 -2 10 -1 26 2 34 5 12 7 12 17 -2 11 -15 15 -14 34 12 12 16 27 35 34
43 16 19 21 68 6 53 -8 -8 -15 -7 -24 6 -19 24 -18 69 1 69 9 0 14 -6 11 -14
-3 -7 -1 -13 4 -13 6 0 9 -5 7 -11 -1 -6 6 -16 16 -22 14 -10 20 -9 27 3 5 8
10 11 10 7 0 -4 15 3 33 17 19 14 36 24 38 21 3 -2 10 5 17 15 10 17 9 20 -14
26 -14 4 -33 18 -42 33 -10 14 -26 28 -37 29 -36 6 -37 19 -5 51 17 17 27 31
21 31 -6 0 -11 9 -11 21 0 11 -4 17 -10 14 -5 -3 -10 -1 -10 5 0 6 -4 8 -10 5
-9 -6 -14 8 -11 28 0 4 -6 7 -14 7 -9 0 -18 8 -22 18 -13 36 -34 50 -69 46
-20 -2 -34 0 -34 6 0 6 5 8 10 5 6 -3 10 1 10 10 0 9 4 14 9 11 4 -3 7 5 6 17
-3 32 -4 33 -13 20 -5 -8 -12 -8 -27 3 -18 13 -17 14 13 10 17 -2 39 -9 47
-16 9 -8 15 -8 15 -2 0 6 9 14 20 17 11 4 18 11 14 16 -3 6 3 13 15 16 11 3
18 9 16 14 -3 4 4 6 15 4 24 -5 52 4 46 14 -2 3 11 13 30 22 18 9 31 12 28 8
-3 -5 0 -9 5 -9 6 0 11 7 11 15 0 8 7 16 15 16 30 3 34 4 46 16 6 6 18 9 25 6
8 -3 14 1 14 8 0 12 2 12 9 0 6 -9 11 -10 15 -2 4 6 12 11 18 11 6 0 6 -6 -2
-15 -7 -9 -19 -14 -26 -11 -7 3 -16 1 -20 -5 -3 -6 -12 -8 -20 -5 -16 6 -57
-43 -50 -61 3 -7 0 -15 -6 -19 -6 -4 -8 -3 -4 4 3 6 2 13 -3 16 -8 5 -8 -15
-1 -34 1 -3 2 -9 1 -13 -1 -5 3 -6 9 -2 5 3 10 1 10 -6 0 -10 3 -10 12 -1 7 7
17 8 30 1 10 -5 18 -6 18 -2 0 5 12 8 26 8 29 -2 68 -31 59 -45 -3 -6 -1 -10
5 -10 7 0 10 -7 6 -15 -3 -8 -1 -15 5 -15 6 0 7 -4 4 -10 -3 -5 -1 -10 5 -10
6 0 5 -13 -4 -35 -9 -20 -12 -43 -9 -52 10 -27 10 -68 -1 -75 -12 -8 12 -40
25 -32 5 3 9 -5 9 -18 0 -19 2 -20 11 -8 9 12 10 12 5 -3 -3 -10 -6 -20 -6
-23 0 -2 -7 -1 -15 3 -9 3 -15 2 -14 -3 1 -5 0 -11 -1 -14 -7 -14 -6 -100 2
-100 4 0 8 -11 8 -25 0 -14 4 -25 10 -25 5 0 7 -7 3 -15 -3 -9 3 -23 13 -31
11 -9 13 -13 7 -9 -7 3 -13 1 -13 -4 0 -6 5 -11 10 -11 6 0 10 -9 10 -20 0
-11 5 -20 11 -20 5 0 8 -4 5 -9 -3 -5 4 -11 15 -14 14 -4 20 -11 16 -20 -10
-26 74 -80 88 -57 10 16 35 12 35 -5 0 -8 7 -15 16 -15 8 0 13 -4 10 -9 -3 -5
1 -11 9 -15 8 -3 17 -1 21 5 4 7 10 7 18 0 15 -12 41 3 32 18 -4 6 -4 11 1 11
4 0 9 21 9 48 3 92 3 92 21 85 11 -4 14 -3 9 5 -4 7 -3 12 1 12 8 0 12 27 16
85 1 17 20 31 42 31 34 1 75 23 75 39 0 8 6 15 14 15 8 0 20 14 28 30 7 17 17
30 21 30 5 0 6 4 3 8 -3 5 0 9 7 9 19 1 42 8 47 15 3 3 14 8 24 10 10 1 38 21
62 42 35 33 41 43 34 62 -5 12 -6 24 -4 27 3 3 -5 11 -17 18 -33 17 -49 35
-49 54 0 10 -5 13 -12 9 -10 -6 -10 -4 -2 7 6 8 9 23 7 34 -2 11 -5 25 -5 32
-1 7 -5 10 -9 7 -4 -2 -13 5 -19 16 -6 11 -15 18 -20 15 -5 -3 -13 7 -16 22
-8 32 -33 55 -51 48 -7 -2 -13 0 -13 6 0 6 -4 7 -10 4 -9 -6 -14 8 -11 28 0 4
-4 7 -10 7 -8 0 -8 4 0 14 10 11 8 17 -6 25 -14 8 -15 11 -3 11 12 0 11 4 -4
15 -16 12 -22 12 -35 2 -9 -8 -12 -8 -8 -1 4 7 0 14 -8 17 -9 4 -12 1 -8 -9 3
-7 0 -14 -6 -14 -6 0 -11 5 -11 10 0 6 -12 10 -26 10 -17 0 -23 4 -18 12 5 8
2 9 -9 5 -9 -3 -19 -2 -22 4 -4 5 -10 7 -15 4 -5 -3 -11 -1 -14 3 -7 11 -46 9
-65 -2 -7 -5 -23 -10 -35 -10 -11 -1 -20 -8 -18 -15 1 -7 -2 -10 -8 -6 -5 3
-18 2 -28 -4 -10 -5 -24 -6 -32 -1 -7 4 -24 4 -37 -1 -15 -5 -23 -5 -23 2 0 5
-10 1 -22 -11 -12 -11 -24 -17 -27 -14 -3 4 0 9 7 11 6 3 9 10 6 15 -5 7 -2 8
7 2 10 -6 10 -2 -2 16 -17 25 -45 30 -83 14 -14 -5 -17 -4 -12 4 5 9 1 9 -19
0 -22 -10 -28 -9 -36 3 -5 8 -9 9 -9 3 0 -6 -13 -11 -30 -12 -16 0 -35 -4 -42
-9 -20 -12 -39 -12 -32 -1 4 6 1 8 -7 6 -8 -3 -13 -11 -11 -18 3 -11 0 -11
-12 0 -12 9 -16 9 -16 1 0 -7 -6 -11 -12 -10 -24 3 -39 -1 -34 -9 4 -7 -14
-12 -54 -14 -8 0 -21 -6 -29 -12 -11 -8 -13 -8 -7 1 4 7 2 21 -3 30 -6 11 -11
13 -11 5 0 -7 -5 -10 -11 -7 -6 4 -19 -2 -30 -13 -10 -12 -15 -23 -10 -27 5
-3 12 1 14 7 4 10 6 10 6 1 1 -7 11 -17 22 -24 17 -9 20 -8 14 2 -6 9 -3 11 8
6 9 -3 20 0 24 6 6 10 12 9 26 -5 9 -10 13 -18 7 -18 -5 0 -10 -7 -10 -15 0
-8 -5 -15 -11 -15 -5 0 -7 6 -4 13 4 6 -2 2 -14 -11 -13 -15 -22 -19 -27 -11
-4 8 -9 7 -15 -2 -5 -8 -9 -9 -9 -3 0 6 -7 11 -15 11 -8 0 -15 -5 -15 -10 0
-5 -7 -7 -15 -3 -9 3 -15 0 -15 -9 0 -8 -6 -15 -14 -15 -8 0 -13 -8 -11 -17 2
-10 4 -22 4 -26 1 -5 5 -6 10 -2 5 3 13 1 16 -5 4 -6 1 -9 -7 -8 -7 2 -12 -2
-11 -9 1 -6 -8 -10 -23 -8 -13 1 -28 -4 -33 -12 -4 -8 -14 -15 -22 -17 -26 -5
-89 -48 -83 -57 3 -5 1 -9 -5 -9 -5 0 -8 -8 -6 -17 2 -10 4 -18 5 -18 1 0 3
-8 5 -17 2 -10 -1 -18 -6 -18 -6 0 -7 -4 -4 -10 3 -5 1 -10 -5 -10 -7 0 -25
-9 -41 -21 -16 -11 -29 -17 -29 -12 0 4 -5 1 -10 -7 -5 -8 -10 -10 -10 -5 0
13 16 37 24 36 3 -1 6 2 5 5 0 4 5 10 13 15 10 6 9 11 -7 23 -11 9 -14 16 -7
16 6 0 12 5 12 11 0 5 -5 7 -12 3 -7 -4 -8 -3 -4 4 4 7 14 12 21 12 9 0 12 6
8 17 -5 12 -3 14 7 8 8 -5 11 -3 8 6 -5 16 21 49 39 49 7 0 13 5 13 11 0 6 5
7 13 2 18 -11 37 -12 37 -2 0 6 5 7 11 4 6 -4 19 2 29 13 10 11 25 22 32 25
10 4 10 7 -1 18 -8 9 -11 9 -7 2 5 -9 -1 -11 -22 -7 -17 3 -40 0 -53 -7 -30
-16 -51 -20 -43 -8 3 5 9 7 14 4 4 -3 13 2 20 10 14 16 12 17 -42 19 -16 1
-28 -2 -28 -7 0 -4 -4 -5 -10 -2 -5 3 -10 0 -10 -7 -1 -7 -11 0 -25 16 -20 25
-26 28 -39 17 -12 -10 -16 -10 -16 -2 0 7 -5 9 -12 5 -7 -5 -9 -2 -5 8 3 9 0
21 -6 27 -9 9 -8 10 7 5 13 -5 17 -4 12 4 -3 6 0 14 7 19 17 10 29 43 17 44
-35 5 -67 3 -63 -3 2 -5 -1 -9 -6 -9 -6 -1 -19 -2 -28 -3 -38 -4 -83 -18 -83
-26 0 -7 -37 -23 -51 -22 -3 1 -6 -5 -6 -12 0 -16 39 -19 49 -3 5 7 8 8 8 1 0
-6 -11 -20 -25 -32 -14 -12 -25 -19 -25 -16 0 4 -6 1 -14 -5 -27 -23 -51 -21
-51 4 0 13 4 21 9 18 5 -4 6 -1 2 6 -5 7 -15 10 -25 7 -9 -4 -6 1 7 12 18 14
20 20 10 30 -15 15 -32 16 -22 0 4 -7 3 -8 -5 -4 -6 4 -9 11 -6 16 3 4 -2 11
-11 14 -13 5 -14 9 -4 21 7 8 16 12 21 10 11 -7 30 30 21 41 -4 5 1 2 11 -5
15 -12 17 -12 10 4 -5 15 -3 17 11 12 12 -5 19 0 26 18 11 28 26 35 16 8 -4
-13 -1 -12 13 4 10 12 21 19 25 16 3 -4 6 0 6 7 0 7 3 11 6 7 10 -10 32 17 26
33 -5 13 -3 13 11 1 11 -9 17 -10 17 -2 0 6 -4 12 -10 12 -5 1 -16 2 -22 3 -7
1 -22 -2 -33 -7 -18 -9 -19 -8 -6 6 16 20 12 21 -11 3z m33 -29 c-10 -9 -11
-8 -5 6 3 10 9 15 12 12 3 -3 0 -11 -7 -18z m974 -77 c3 -6 -1 -7 -9 -4 -18 7
-21 14 -7 14 6 0 13 -4 16 -10z m-448 -65 c0 -8 -4 -12 -9 -9 -5 3 -6 10 -3
15 9 13 12 11 12 -6z m-397 -79 c0 -3 -4 -8 -10 -11 -5 -3 -10 -1 -10 4 0 6 5
11 10 11 6 0 10 -2 10 -4z m75 -56 c3 -5 -1 -10 -9 -10 -8 0 -18 -5 -22 -12
-5 -7 -2 -9 7 -4 8 4 3 -1 -10 -12 -18 -15 -21 -21 -10 -25 12 -5 12 -7 -1
-16 -10 -7 -11 -11 -2 -11 6 0 12 -4 12 -10 0 -5 -4 -9 -9 -7 -5 1 -17 -7 -26
-18 -9 -11 -13 -13 -9 -5 5 12 4 12 -6 3 -7 -6 -19 -9 -28 -6 -11 5 -13 2 -7
-6 6 -10 3 -11 -13 -2 -16 8 -21 7 -26 -5 -5 -12 -9 -14 -20 -5 -11 9 -13 7
-12 -9 0 -11 -2 -20 -6 -20 -44 -1 -55 2 -55 15 0 9 16 19 39 25 21 6 38 15
38 19 0 5 10 8 23 7 13 -1 21 4 20 12 -2 6 1 12 6 12 5 0 12 7 15 16 3 9 2 12
-5 8 -6 -3 -5 3 2 14 7 12 17 18 21 16 4 -3 8 0 8 6 0 7 7 9 17 6 10 -4 14 -4
10 0 -8 8 22 33 40 34 6 0 15 -4 18 -10z m65 -50 c0 -5 -5 -10 -11 -10 -5 0
-7 5 -4 10 3 6 8 10 11 10 2 0 4 -4 4 -10z m-415 -39 c-3 -5 -1 -12 5 -16 5
-3 10 -2 10 4 0 8 20 8 40 1 3 -1 13 -1 23 0 15 1 17 -2 8 -18 -6 -11 -7 -23
-3 -28 4 -5 -3 -1 -15 9 -14 12 -23 15 -28 8 -8 -14 -25 -14 -25 0 0 5 5 7 12
3 7 -4 8 -3 4 5 -6 9 -11 9 -24 -1 -10 -8 -13 -9 -9 -1 4 6 3 14 -3 18 -10 6
-5 25 6 25 3 0 3 -4 -1 -9z m1708 -44 c-4 -7 0 -6 10 2 12 9 17 10 17 2 0 -18
-31 -26 -40 -10 -10 16 -3 32 11 23 5 -3 6 -11 2 -17z m-1462 -40 c-10 -9 -11
-8 -5 6 3 10 9 15 12 12 3 -3 0 -11 -7 -18z m1520 -44 c2 1 -2 -3 -10 -10 -24
-21 -31 -8 -21 37 0 3 7 -3 14 -12 7 -10 15 -17 17 -15z m-616 -3 c-3 -5 -1
-10 6 -10 18 0 5 -10 -19 -15 -19 -3 -20 -1 -9 16 6 10 15 19 20 19 4 0 5 -4
2 -10z m16 -113 c-8 -8 -11 -8 -11 2 0 7 -5 9 -12 5 -7 -4 -8 -3 -4 5 4 6 12
9 17 6 5 -4 9 0 10 7 0 10 2 10 6 0 3 -8 0 -19 -6 -25z m-977 -82 c-4 -8 -10
-15 -15 -15 -4 0 -6 7 -3 15 4 8 10 15 15 15 4 0 6 -7 3 -15z m-984 -451 c0
-8 -19 -13 -24 -6 -3 5 1 9 9 9 8 0 15 -2 15 -3z m6 -22 c-17 -16 -18 -16 -5
5 7 12 15 20 18 17 3 -2 -3 -12 -13 -22z m60 -19 c-8 -8 -57 -12 -52 -5 2 4
16 8 31 8 14 1 24 0 21 -3z m24 -23 c0 13 1 13 10 0 6 -10 4 -20 -7 -32 -17
-19 -39 -25 -28 -9 3 5 0 11 -7 14 -7 2 -2 2 12 0 20 -4 23 -2 13 8 -7 7 -13
18 -13 24 0 5 5 3 10 -5 9 -13 10 -13 10 0z m34 -60 c-6 -6 -15 -5 -24 1 -12
9 -12 10 4 5 14 -5 17 -3 12 11 -6 15 -5 16 5 6 8 -8 10 -16 3 -23z m26 -20
c0 -5 -4 -10 -10 -10 -5 0 -10 5 -10 10 0 6 5 10 10 10 6 0 10 -4 10 -10z
m-1097 -862 c-7 -16 -11 -28 -7 -28 4 0 1 -6 -5 -13 -6 -8 -8 -17 -4 -20 3 -4
-1 -7 -10 -7 -10 0 -15 7 -12 18 8 39 18 78 24 87 3 6 6 13 7 18 4 20 7 20 13
-3 5 -15 3 -36 -6 -52z m1343 -2157 c-3 -5 1 -12 10 -15 13 -5 14 -9 4 -21
-16 -20 -31 -9 -26 18 6 28 5 27 12 27 3 0 3 -4 0 -9z m1665 -1510 c-8 -5 -10
-14 -6 -22 6 -11 5 -11 -5 -2 -11 10 -11 15 0 28 7 8 15 13 19 10 3 -3 -1 -10
-8 -14z m26 -16 c0 -8 -4 -12 -9 -9 -5 3 -6 10 -3 15 9 13 12 11 12 -6z m-17
-34 c0 -6 -4 -12 -8 -15 -5 -3 -9 1 -9 9 0 8 4 15 9 15 4 0 8 -4 8 -9z"/>
<path d="M4613 6897 c0 -8 5 -14 11 -15 6 0 25 -4 41 -8 17 -4 40 -7 53 -7 12
1 22 -3 22 -9 0 -5 5 -6 10 -3 6 3 16 3 23 -2 18 -11 38 -13 31 -2 -3 5 -10 7
-15 4 -5 -4 -9 -3 -9 2 0 15 -47 30 -64 21 -11 -6 -16 -5 -16 3 0 6 -7 9 -15
5 -8 -3 -15 -1 -15 4 0 5 -9 7 -20 5 -11 -2 -20 0 -20 6 0 5 -4 9 -8 9 -5 0
-9 -6 -9 -13z"/>
<path d="M4165 6873 c4 -16 2 -23 -7 -23 -7 -1 0 -8 15 -16 15 -8 25 -18 23
-23 -3 -4 0 -8 7 -9 31 -2 61 -13 69 -24 6 -11 8 -11 8 0 0 9 8 9 31 -4 17 -8
28 -11 25 -5 -4 6 -3 11 3 11 5 0 11 -6 14 -12 2 -7 7 -10 11 -7 9 9 -26 44
-49 47 -20 4 -67 46 -60 54 2 2 -4 4 -13 5 -52 5 -68 9 -75 18 -5 6 -5 0 -2
-12z m53 -28 c-3 -3 -9 2 -12 12 -6 14 -5 15 5 6 7 -7 10 -15 7 -18z"/>
<path d="M4280 6841 c0 -10 19 -25 25 -20 1 2 -3 10 -11 17 -8 7 -14 8 -14 3z"/>
<path d="M2783 6809 c-4 -13 -8 -16 -13 -10 -5 8 -13 9 -31 1 -22 -10 -23 -10
-1 -6 12 2 22 0 22 -5 0 -5 -3 -9 -7 -10 -5 0 -19 -2 -33 -4 -14 -1 -31 2 -37
7 -7 6 -13 7 -13 3 0 -4 8 -14 18 -21 9 -7 12 -14 5 -14 -6 0 -9 -9 -6 -20 3
-11 -1 -28 -8 -37 -13 -15 -12 -15 8 -3 12 8 20 18 17 22 -3 4 2 5 10 2 9 -3
13 -11 9 -18 -4 -8 -2 -8 7 1 7 6 19 9 26 6 8 -3 14 1 14 8 0 11 3 11 10 -1 8
-13 10 -13 10 2 0 12 5 15 15 11 9 -3 15 -2 14 3 -3 19 2 28 9 17 5 -8 13 -9
22 -3 13 8 12 10 -2 10 -26 0 -32 2 -47 17 -18 18 -6 30 14 13 8 -7 15 -9 15
-5 0 4 6 3 13 -3 10 -9 19 -8 34 3 11 8 24 11 29 7 5 -4 2 1 -5 11 -7 9 -19
17 -25 17 -6 0 -4 -5 4 -10 13 -9 7 -14 -12 -11 -5 0 -8 -4 -8 -10 0 -8 -6 -7
-17 2 -9 8 -18 13 -20 12 -1 -2 -2 0 0 5 1 4 10 6 19 6 10 -1 15 2 13 7 -3 4
-19 6 -35 4 -18 -3 -28 0 -25 5 4 6 3 10 0 10 -4 0 -9 -9 -12 -21z"/>
<path d="M2945 6739 c3 -4 -3 -8 -12 -8 -38 -1 -53 -5 -53 -12 0 -5 -7 -6 -15
-3 -8 4 -15 1 -15 -6 0 -6 -4 -9 -9 -6 -5 3 -11 -4 -14 -15 -3 -12 -10 -18
-16 -14 -7 4 -8 0 -4 -11 6 -15 8 -15 24 5 10 12 19 16 21 10 3 -8 9 -7 19 3
8 8 20 13 28 10 8 -3 11 0 7 7 -5 8 0 8 18 1 16 -6 27 -6 31 1 4 5 10 7 15 4
13 -8 22 13 13 27 -4 7 -16 14 -25 14 -10 1 -15 -2 -13 -7z m5 -20 c0 6 7 11
15 11 8 0 15 -5 15 -12 0 -6 -3 -8 -7 -5 -3 4 -12 2 -18 -3 -9 -7 -17 -5 -26
7 -13 16 -12 17 4 4 11 -9 17 -10 17 -2z"/>
<path d="M3050 6740 c0 -5 5 -10 11 -10 5 0 7 5 4 10 -3 6 -8 10 -11 10 -2 0
-4 -4 -4 -10z"/>
<path d="M3050 6521 c0 -10 19 -25 25 -20 1 2 -3 10 -11 17 -8 7 -14 8 -14 3z"/>
<path d="M4414 6255 c3 -8 -5 -11 -20 -9 -13 1 -24 -2 -24 -7 0 -6 -4 -8 -9
-5 -5 3 -12 -1 -15 -9 -4 -13 -10 -14 -26 -5 -11 6 -20 8 -20 5 0 -3 -9 -1
-20 5 -14 8 -20 8 -20 0 0 -6 -4 -9 -9 -6 -4 3 -7 -6 -6 -19 5 -38 66 -96 106
-100 19 -2 34 -4 34 -5 0 -1 18 -3 39 -4 35 -2 96 17 96 30 0 3 -6 2 -12 -1
-7 -4 -2 3 11 14 15 14 21 28 18 41 -3 10 0 21 7 24 7 3 7 5 -1 5 -7 1 -13 8
-13 16 0 8 -3 14 -7 14 -5 -1 -10 -1 -13 1 -3 1 -16 4 -30 6 -13 2 -27 8 -30
13 -8 13 -41 9 -36 -4z m-89 -125 c3 -5 1 -10 -4 -10 -6 0 -11 5 -11 10 0 6 2
10 4 10 3 0 8 -4 11 -10z"/>
<path d="M3225 5500 c3 -5 8 -10 11 -10 2 0 4 5 4 10 0 6 -5 10 -11 10 -5 0
-7 -4 -4 -10z"/>
<path d="M1360 3671 c-43 -21 -58 -44 -41 -65 12 -14 16 -14 43 0 35 18 53 13
98 -29 40 -36 63 -52 103 -70 15 -7 25 -16 22 -19 -3 -3 1 -11 10 -18 8 -7 15
-19 15 -27 0 -8 13 -18 28 -24 28 -9 42 -42 16 -37 -7 2 -13 0 -13 -4 -3 -30
1 -38 20 -38 11 0 30 -5 41 -11 11 -6 45 -13 75 -15 30 -2 58 -6 63 -9 11 -7
22 28 15 48 -4 8 -21 22 -38 31 -18 8 -28 16 -24 16 10 0 -65 70 -76 70 -5 0
-6 4 -3 8 2 4 -9 17 -25 27 -16 11 -29 23 -29 28 0 4 -7 7 -15 7 -8 0 -19 9
-25 20 -6 11 -15 18 -21 15 -5 -4 -9 -2 -9 3 0 12 -58 72 -70 72 -6 0 -10 5
-10 11 0 5 -4 7 -10 4 -5 -3 -10 -1 -10 4 0 6 -5 11 -11 11 -5 0 -7 -6 -3 -12
5 -9 2 -9 -9 1 -9 7 -17 11 -17 8 0 -3 -13 -2 -28 2 -19 6 -38 3 -62 -8z"/>
<path d="M1882 3315 c4 -4 3 -14 -3 -22 -9 -9 -8 -13 0 -13 6 0 11 -5 11 -11
0 -7 8 -18 18 -25 11 -9 13 -13 4 -14 -7 0 -11 -4 -8 -9 4 -5 -3 -7 -14 -4
-11 3 -17 10 -13 16 3 6 1 7 -6 3 -6 -4 -18 -2 -26 4 -11 9 -15 9 -15 1 0 -6
-7 -11 -16 -11 -13 0 -14 -3 -5 -13 6 -8 8 -17 4 -20 -3 -4 -1 -7 6 -7 7 0 10
-4 7 -9 -6 -9 26 -20 77 -27 31 -4 80 -38 70 -48 -4 -4 4 -3 17 2 14 5 25 14
25 20 0 6 3 14 8 18 4 4 7 3 7 -3 0 -6 16 -10 35 -10 19 1 35 5 35 10 0 5 8
-1 18 -13 20 -25 62 -34 74 -17 8 12 -7 44 -31 68 -9 9 -29 32 -45 52 -15 20
-32 34 -37 31 -5 -3 -9 0 -9 5 0 6 -3 10 -7 10 -5 -1 -10 0 -13 1 -13 5 -94
20 -125 23 -11 2 -27 7 -35 11 -8 5 -12 6 -8 1z"/>
<path d="M1600 3278 c0 -4 -7 -8 -16 -8 -13 0 -11 -5 7 -21 13 -11 17 -17 9
-13 -13 7 -13 5 -1 -9 7 -9 17 -15 21 -12 4 3 10 -1 13 -9 6 -16 57 -28 57
-14 0 6 7 7 16 4 12 -5 14 -1 8 16 -8 27 -29 49 -38 41 -3 -4 -6 1 -6 11 0 9
-4 14 -10 11 -5 -3 -10 -2 -10 2 0 5 -11 9 -25 9 -14 0 -25 -4 -25 -8z"/>
<path d="M2285 3139 c-4 -6 -13 -8 -21 -5 -8 3 -15 0 -15 -7 -1 -7 -3 -22 -4
-35 -1 -12 0 -20 3 -17 3 2 10 1 16 -4 18 -14 56 -20 62 -10 3 5 9 7 14 4 4
-3 10 2 13 10 6 14 -35 55 -55 55 -5 0 -6 5 -3 10 3 6 4 10 1 10 -3 0 -8 -5
-11 -11z"/>
<path d="M6734 2869 c-4 -8 -3 -9 4 -5 7 4 12 2 12 -3 0 -6 7 -11 15 -11 8 0
15 5 15 12 0 6 -3 8 -7 5 -3 -4 -12 -2 -19 4 -8 7 -14 6 -20 -2z"/>
<path d="M300 2549 c5 -18 12 -34 14 -37 3 -2 -6 -21 -19 -41 -22 -32 -36 -96
-17 -77 7 8 8 13 11 42 0 8 6 12 11 9 6 -4 10 -3 9 2 -4 15 13 43 22 37 14 -9
10 34 -6 66 -21 40 -36 39 -25 -1z"/>
<path d="M3495 430 c-3 -5 -1 -10 4 -10 6 0 11 5 11 10 0 6 -2 10 -4 10 -3 0
-8 -4 -11 -10z"/>
</g>
</svg>
