<?xml version="1.0" standalone="no"?>
<!DOCTYPE svg PUBLIC "-//W3C//DTD SVG 20010904//EN"
 "http://www.w3.org/TR/2001/REC-SVG-20010904/DTD/svg10.dtd">
<svg version="1.0" xmlns="http://www.w3.org/2000/svg"
 width="400.000000pt" height="400.000000pt" viewBox="0 0 400.000000 400.000000"
 preserveAspectRatio="xMidYMid meet">
<metadata>
Created by potrace 1.14, written by Peter Selinger 2001-2017
</metadata>
<g transform="translate(0.000000,400.000000) scale(0.100000,-0.100000)"
fill="#000000" stroke="none">
<path d="M1 3845 c0 -140 6 -175 24 -145 8 14 99 71 170 107 62 32 216 82 320
105 35 7 126 12 220 12 149 -1 165 -2 228 -27 226 -90 324 -171 419 -348 33
-61 92 -209 86 -214 -2 -2 -34 3 -71 10 -84 16 -185 5 -252 -26 -58 -28 -119
-96 -135 -154 -17 -59 -9 -184 18 -295 58 -240 83 -364 78 -386 -6 -23 -10
-24 -79 -24 -49 0 -80 -5 -93 -15 -25 -19 -55 -19 -80 0 -23 17 -98 19 -143 4
-45 -16 -58 -1 -36 41 19 37 14 60 -14 60 -25 0 -50 -35 -57 -81 l-6 -36 -52
9 c-28 4 -98 5 -156 2 -164 -8 -208 -15 -317 -46 l-73 -21 0 -335 c0 -314 1
-334 17 -327 37 15 105 17 148 5 51 -14 118 -72 136 -116 20 -51 13 -150 -14
-194 -57 -96 -167 -134 -271 -94 -15 6 -16 -54 -16 -655 l0 -661 98 0 98 0 77
159 c42 87 77 162 77 167 0 15 114 216 141 249 65 79 149 148 290 237 287 181
349 268 369 523 5 66 10 182 10 257 l0 137 -28 16 c-33 20 -89 90 -118 146
-12 22 -29 84 -39 135 -26 138 -13 227 40 280 21 21 94 54 120 54 22 0 25 4
25 38 1 164 144 400 310 511 205 137 451 201 723 188 122 -6 156 -16 302 -90
133 -67 198 -133 282 -287 42 -77 89 -198 80 -206 -3 -3 -24 0 -48 6 -135 37
-316 -15 -371 -106 -61 -101 -61 -158 2 -444 31 -140 37 -169 52 -230 8 -30
11 -66 8 -79 -5 -23 -9 -25 -66 -22 -39 1 -76 -4 -103 -15 -40 -16 -45 -16
-77 0 -38 18 -80 20 -135 7 -52 -12 -63 -2 -45 40 17 41 8 62 -25 57 -26 -3
-44 -32 -54 -90 -6 -30 -3 -40 15 -58 21 -21 29 -22 99 -16 99 9 90 10 138 -8
38 -14 46 -14 96 3 31 11 57 17 60 15 2 -2 30 -5 62 -5 53 -2 61 1 82 27 30
38 30 93 -1 209 -13 50 -28 110 -31 135 -10 60 -11 66 -29 135 -47 173 -38
259 33 326 55 50 103 63 214 55 97 -6 152 -25 161 -53 28 -94 38 -476 16 -618
-6 -38 -13 -97 -16 -130 -11 -126 -79 -350 -137 -449 -60 -101 -129 -172 -206
-210 -125 -63 -168 -71 -356 -70 -156 0 -177 2 -260 28 -296 91 -456 211 -543
409 -15 34 -26 47 -42 47 -49 0 -33 -78 38 -183 54 -81 132 -154 222 -207 94
-57 269 -124 389 -150 92 -20 120 -22 240 -16 164 8 256 31 361 91 51 29 61
31 71 19 32 -38 174 -118 339 -189 137 -60 254 -140 329 -224 34 -38 61 -72
61 -76 0 -4 16 -29 35 -54 41 -57 135 -239 135 -263 0 -10 9 -32 20 -50 11
-18 20 -43 20 -55 0 -41 11 -53 46 -53 19 0 34 1 34 3 0 1 -4 16 -9 33 -8 29
-7 32 26 43 19 7 62 28 95 47 l61 35 21 -21 c31 -30 97 -80 107 -80 13 0 11
88 -2 95 -6 4 -8 14 -5 22 4 9 1 13 -6 10 -7 -2 -12 -11 -10 -18 1 -8 -9 -2
-22 13 -13 15 -27 24 -32 20 -4 -4 -4 -1 0 5 4 7 14 13 22 13 9 0 12 5 8 12
-4 6 -3 8 3 5 6 -4 14 0 17 9 4 10 2 13 -7 8 -6 -4 1 6 16 23 26 28 28 35 25
99 l-3 69 -25 -44 c-14 -24 -30 -53 -37 -65 -29 -52 -121 -133 -183 -163 -102
-48 -93 -51 -129 42 -18 45 -55 120 -82 166 l-49 84 32 3 c61 4 153 24 180 38
16 8 28 23 28 33 0 23 -25 45 -40 36 -25 -16 -129 -34 -191 -35 -58 0 -69 3
-81 22 -26 39 -124 136 -159 157 l-34 21 57 0 c31 0 69 5 84 10 21 8 35 7 60
-5 45 -21 92 -21 136 -1 21 10 46 15 57 11 11 -3 39 -7 61 -7 76 -1 113 61 90
152 -17 70 -80 347 -97 425 -30 147 1 241 97 291 48 25 137 34 198 20 l32 -8
0 41 0 41 -72 0 c-102 -1 -149 -12 -211 -50 -63 -38 -100 -93 -116 -172 -13
-61 -6 -128 29 -278 11 -47 29 -125 40 -175 11 -49 26 -112 32 -138 18 -71 8
-81 -75 -78 -48 2 -73 -2 -89 -13 -28 -20 -48 -20 -84 -1 -35 18 -79 19 -139
3 -24 -7 -47 -9 -50 -6 -3 3 2 21 11 41 20 42 13 67 -19 67 -32 0 -62 -64 -55
-118 l6 -38 -62 32 c-33 18 -106 51 -161 75 -55 23 -116 53 -135 65 -19 13
-39 24 -45 24 -5 0 -30 18 -54 39 l-45 38 41 49 c92 111 152 268 209 552 4 19
10 22 56 22 28 0 87 -7 131 -16 77 -16 81 -16 94 2 24 33 -11 54 -123 69 -54
8 -110 11 -123 8 -22 -5 -23 -4 -17 23 4 16 10 134 13 262 l6 233 25 10 c49
19 234 39 346 38 129 -1 180 -14 325 -86 135 -67 213 -143 285 -278 l27 -50
-2 87 c-1 75 -4 87 -20 91 -11 3 -19 14 -19 26 0 12 -4 21 -9 21 -5 0 -8 11
-8 25 0 14 2 23 5 21 3 -3 11 -1 19 5 10 9 10 15 2 25 -11 14 -10 15 13 18 6
0 13 8 15 16 4 12 3 12 -5 1 -17 -24 -25 8 -8 34 14 21 16 76 16 427 -1 275
-4 398 -11 386 -19 -34 -95 -77 -147 -84 -67 -9 -154 18 -187 58 -14 16 -29
27 -35 23 -6 -4 -7 1 -3 11 4 10 2 15 -3 11 -10 -6 -11 -5 -20 93 -4 49 -2 76
10 104 9 21 13 42 10 47 -3 5 -2 8 3 7 4 -2 24 9 44 24 71 55 134 69 212 47
38 -10 58 -23 103 -67 l24 -23 0 351 0 350 -920 0 c-506 0 -926 -3 -935 -6 -8
-3 -13 -10 -10 -14 3 -4 -8 -16 -23 -26 -15 -10 -33 -24 -40 -31 -8 -7 -18
-10 -24 -7 -6 4 -8 3 -5 -3 8 -13 -14 -84 -24 -77 -5 2 -6 -11 -4 -31 3 -21 1
-35 -6 -35 -6 0 -8 -8 -5 -17 3 -10 7 -36 11 -58 4 -31 3 -36 -5 -20 -9 18
-10 17 -5 -5 2 -14 5 -33 5 -42 0 -9 7 -24 16 -32 8 -9 13 -20 9 -26 -9 -14 6
-81 16 -74 5 3 9 -2 9 -11 0 -9 -4 -14 -9 -11 -5 4 -12 0 -14 -6 -3 -7 -6 -2
-7 12 -2 24 -2 24 -11 -4 -4 -17 -6 -32 -4 -35 3 -2 5 2 5 10 1 8 7 1 15 -16
14 -30 14 -30 9 -2 -4 16 -2 27 5 27 6 0 11 -9 11 -19 0 -11 5 -23 11 -26 6
-4 8 -14 4 -23 -3 -8 0 -19 7 -24 10 -6 10 -8 1 -8 -7 0 -13 -9 -13 -21 0 -11
5 -17 10 -14 6 3 10 1 10 -5 0 -6 -6 -13 -14 -16 -19 -7 -78 -102 -71 -114 10
-17 -6 -34 -17 -19 -7 11 -11 11 -15 2 -3 -8 -14 -11 -30 -7 -15 4 -24 3 -20
-2 6 -11 -43 -12 -60 -1 -9 5 -13 3 -13 -8 0 -9 -5 -13 -10 -10 -6 4 -16 2
-23 -3 -7 -5 -27 -13 -46 -17 -30 -6 -33 -5 -27 11 6 16 3 15 -14 -4 -12 -12
-25 -20 -30 -17 -15 9 6 50 24 47 22 -4 20 8 -8 43 -21 27 -26 28 -50 17 -17
-7 -26 -20 -26 -34 0 -20 -1 -21 -13 -4 -11 15 -13 8 -12 -48 1 -49 -2 -67
-13 -71 -12 -4 -12 -3 -3 9 8 10 8 15 1 18 -6 2 -12 24 -13 51 -1 26 -5 47 -8
47 -3 0 -11 30 -18 66 -11 63 -11 68 9 86 11 10 20 26 19 36 0 13 -3 11 -9 -5
-13 -31 -34 -29 -50 5 -8 15 -16 31 -18 36 -3 5 9 7 27 4 34 -5 34 -8 -8 42
-2 3 -1 -3 2 -13 5 -14 3 -18 -11 -15 -9 2 -16 10 -15 16 2 7 -2 12 -8 12 -6
0 -8 8 -4 19 4 13 0 21 -12 25 -10 3 -33 37 -52 75 -19 39 -45 82 -58 97 -12
15 -23 30 -23 34 0 4 -29 35 -65 71 -36 35 -65 70 -65 77 0 7 -5 10 -10 7 -14
-9 -50 4 -47 17 1 6 -4 13 -12 16 -8 3 -11 0 -7 -7 5 -7 1 -9 -8 -5 -9 3 -13
10 -10 15 3 5 -2 9 -10 9 -9 0 -30 8 -48 18 -18 11 -50 22 -70 26 -21 4 -38
10 -38 14 0 22 -131 30 -532 31 l-428 2 1 -156z m2394 92 c11 -3 35 -6 53 -6
17 -1 32 -5 32 -11 0 -5 -6 -8 -12 -6 -7 1 -10 1 -5 -1 4 -3 4 -10 1 -16 -5
-9 -4 -9 6 0 7 6 20 9 29 6 14 -4 14 -3 1 6 -9 7 -10 11 -3 11 6 0 15 -5 19
-11 8 -13 -16 -30 -30 -22 -5 3 -6 1 -2 -5 4 -7 -13 -30 -40 -54 -60 -56 -138
-168 -185 -265 -11 -23 -25 -45 -31 -49 -7 -5 -8 -3 -3 6 5 9 4 11 -4 6 -7 -4
-9 -17 -6 -29 6 -21 6 -22 -9 -3 -9 11 -16 16 -16 12 0 -5 -7 -3 -15 4 -12 10
-13 16 -5 24 8 8 13 7 20 -4 5 -8 10 -10 10 -4 0 6 -12 21 -27 35 -15 13 -21
16 -14 6 8 -9 10 -21 6 -25 -4 -4 -10 -1 -12 6 -4 9 -9 10 -18 2 -10 -8 -14
-3 -19 23 -4 19 -4 43 0 53 5 16 4 17 -6 4 -9 -12 -11 -10 -7 12 2 15 1 25 -3
23 -12 -7 -22 63 -14 98 3 18 11 41 17 52 6 11 12 27 13 35 4 23 64 72 80 66
9 -3 12 -1 9 4 -3 6 -3 10 2 11 23 2 46 8 51 14 7 7 103 1 137 -8z m-368 -319
c-3 -8 -6 -5 -6 6 -1 11 2 17 5 13 3 -3 4 -12 1 -19z m143 -123 c0 -5 -5 -3
-11 5 -9 13 -10 13 -6 0 2 -8 11 -14 20 -14 12 1 15 -5 10 -27 -7 -34 4 -38
17 -6 8 20 9 20 9 2 2 -64 -47 -139 -51 -77 0 15 -1 33 -1 40 1 6 -3 12 -8 12
-5 0 -9 26 -9 57 0 52 1 55 15 37 8 -10 14 -23 15 -29z m815 -107 c25 -7 45
-16 45 -20 0 -4 7 -8 15 -8 8 0 15 -5 15 -11 0 -5 5 -7 12 -3 6 4 8 3 5 -3 -4
-6 2 -18 12 -27 10 -9 26 -41 36 -71 15 -50 15 -58 0 -117 -10 -35 -17 -68
-18 -75 0 -7 -4 -10 -8 -8 -4 3 -14 -6 -23 -20 -9 -14 -21 -25 -27 -25 -6 0
-17 -6 -25 -14 -23 -23 -132 -30 -183 -11 -36 12 -46 13 -54 3 -6 -10 -8 -9
-4 3 3 10 -8 30 -27 50 -42 44 -59 88 -59 154 0 66 20 110 71 156 62 56 130
70 217 47z m-1578 -114 c38 -8 74 -19 81 -23 12 -7 44 -218 36 -233 -3 -4 -30
-21 -60 -39 -63 -36 -175 -136 -210 -189 -13 -19 -43 -64 -66 -99 l-42 -64
-23 104 c-12 57 -32 145 -44 195 -28 121 -24 216 11 268 24 36 85 79 125 89
42 10 125 6 192 -9z m-558 -891 c41 -16 47 -16 91 0 26 9 61 17 76 17 l29 -1
-30 -13 c-30 -13 -79 -62 -87 -87 -3 -8 -36 5 -96 35 -51 27 -89 52 -86 57 8
14 54 11 103 -8z m226 -675 l27 -21 -4 -179 c-2 -109 -8 -182 -15 -189 -6 -6
-37 -13 -69 -16 -85 -7 -158 26 -202 92 -57 86 -43 214 31 276 73 61 180 78
232 37z"/>
<path d="M2148 3883 c-28 -33 -31 -48 -3 -20 15 16 25 30 23 33 -3 2 -12 -4
-20 -13z"/>
<path d="M970 1577 c-36 -18 -41 -78 -8 -101 12 -9 30 -16 39 -16 20 0 52 34
42 44 -5 4 -2 6 6 4 26 -6 22 22 -7 52 -34 34 -37 35 -72 17z"/>
<path d="M971 3989 c8 -5 10 -9 4 -9 -5 -1 -1 -5 10 -9 11 -5 40 -5 65 0 l45
8 -48 -2 c-28 -1 -46 2 -43 8 2 5 -8 11 -22 12 -18 1 -21 -1 -11 -8z"/>
<path d="M1104 3988 c-3 -4 -2 -8 3 -9 4 0 16 -2 25 -4 10 -2 15 2 12 9 -5 14
-32 17 -40 4z"/>
<path d="M1157 3983 c3 -7 6 -13 8 -13 1 0 7 6 13 13 8 10 6 13 -7 13 -11 0
-17 -6 -14 -13z"/>
<path d="M1202 3994 c9 -8 -41 -54 -60 -55 -11 0 -13 -2 -4 -6 20 -8 63 -53
50 -53 -6 0 -8 -3 -4 -7 4 -5 13 0 21 10 11 15 13 16 19 2 3 -8 11 -15 18 -14
10 0 10 2 1 6 -7 2 -13 11 -13 18 0 16 35 29 51 19 8 -4 9 -3 5 4 -4 7 -1 12
9 12 9 0 13 -4 10 -10 -10 -17 4 -11 25 10 37 37 215 27 242 -14 4 -6 12 -5
22 3 11 9 16 10 16 2 0 -6 5 -11 11 -11 5 0 8 4 5 9 -4 5 2 7 13 4 22 -6 35
12 36 49 l1 27 -220 0 c-163 0 -222 -3 -228 -12 -6 -9 -8 -9 -8 1 0 6 -5 12
-12 12 -6 0 -9 -3 -6 -6z"/>
<path d="M1045 3950 c3 -5 13 -10 21 -10 8 0 12 5 9 10 -3 6 -13 10 -21 10 -8
0 -12 -4 -9 -10z"/>
<path d="M1740 3950 c0 -5 5 -10 11 -10 5 0 7 5 4 10 -3 6 -8 10 -11 10 -2 0
-4 -4 -4 -10z"/>
<path d="M2018 3903 c-3 -10 -9 -27 -13 -38 l-7 -20 13 20 c7 11 16 22 20 25
4 3 4 11 0 19 -6 10 -9 8 -13 -6z"/>
<path d="M1245 3900 c-3 -5 -1 -10 4 -10 6 0 11 5 11 10 0 6 -2 10 -4 10 -3 0
-8 -4 -11 -10z"/>
<path d="M1696 3855 c-4 -10 1 -15 14 -15 11 0 20 7 20 15 0 8 -6 15 -14 15
-8 0 -16 -7 -20 -15z"/>
<path d="M1664 3743 c1 -19 5 -28 10 -23 6 6 5 18 -1 32 -10 21 -10 21 -9 -9z"/>
<path d="M1656 3628 c3 -5 10 -6 15 -3 13 9 11 12 -6 12 -8 0 -12 -4 -9 -9z"/>
<path d="M1638 3588 c3 -14 -2 -26 -13 -34 -17 -13 -17 -14 -2 -14 11 0 20 11
23 29 5 22 10 28 23 24 9 -4 13 -3 10 1 -4 4 -15 8 -27 11 -16 3 -19 -1 -14
-17z"/>
<path d="M1662 3560 c0 -14 2 -19 5 -12 2 6 2 18 0 25 -3 6 -5 1 -5 -13z"/>
<path d="M2001 3555 c0 -11 4 -27 9 -35 9 -13 10 -13 9 0 0 8 -4 24 -9 35 l-9
20 0 -20z"/>
<path d="M1570 3540 c-8 -5 -10 -10 -5 -11 6 0 18 -2 28 -4 15 -3 16 -1 6 11
-14 16 -10 16 -29 4z"/>
<path d="M1530 3401 c0 -6 4 -11 9 -11 5 0 12 -8 14 -17 4 -15 5 -15 6 -2 0 9
-6 22 -14 29 -10 9 -15 9 -15 1z"/>
<path d="M2010 3391 c0 -25 6 -27 13 -6 4 8 2 17 -3 20 -6 4 -10 -3 -10 -14z"/>
<path d="M2040 3354 c0 -8 5 -12 10 -9 6 4 8 11 5 16 -9 14 -15 11 -15 -7z"/>
<path d="M365 3354 c-47 -6 -139 -27 -150 -34 -5 -4 -22 -10 -37 -14 -42 -10
-51 -66 -10 -66 9 0 51 12 92 26 56 19 96 25 157 25 45 1 86 -2 92 -5 5 -3 34
-9 65 -12 47 -5 57 -4 62 11 12 31 -21 48 -123 61 -54 7 -102 13 -108 12 -5 0
-23 -3 -40 -4z"/>
<path d="M2010 3334 c0 -8 5 -12 10 -9 6 4 8 11 5 16 -9 14 -15 11 -15 -7z"/>
<path d="M2040 3309 c0 -5 5 -7 10 -4 6 3 10 8 10 11 0 2 -4 4 -10 4 -5 0 -10
-5 -10 -11z"/>
<path d="M2000 3300 c0 -5 5 -10 11 -10 5 0 7 5 4 10 -3 6 -8 10 -11 10 -2 0
-4 -4 -4 -10z"/>
<path d="M2000 3276 c0 -2 7 -9 15 -16 9 -7 15 -8 15 -2 0 5 -7 12 -15 16 -8
3 -15 4 -15 2z"/>
<path d="M1615 3260 c-3 -5 1 -10 9 -10 8 0 18 5 21 10 3 6 -1 10 -9 10 -8 0
-18 -4 -21 -10z"/>
<path d="M1750 3247 c0 -10 -5 -14 -14 -11 -11 4 -13 0 -9 -15 3 -12 9 -23 13
-26 9 -5 23 55 15 63 -3 3 -5 -2 -5 -11z"/>
<path d="M1927 3188 c6 -11 35 -10 53 2 10 6 4 8 -22 7 -20 -1 -34 -5 -31 -9z"/>
<path d="M1778 3183 c6 -2 18 -2 25 0 6 3 1 5 -13 5 -14 0 -19 -2 -12 -5z"/>
<path d="M1820 3170 c0 -5 5 -10 10 -10 6 0 10 5 10 10 0 6 -4 10 -10 10 -5 0
-10 -4 -10 -10z"/>
<path d="M1898 3173 c7 -3 16 -2 19 1 4 3 -2 6 -13 5 -11 0 -14 -3 -6 -6z"/>
<path d="M1768 3163 c7 -3 16 -2 19 1 4 3 -2 6 -13 5 -11 0 -14 -3 -6 -6z"/>
<path d="M1750 2530 c-126 -21 -203 -48 -214 -75 -2 -7 1 -21 9 -32 13 -17 15
-17 62 0 119 45 184 52 303 33 117 -20 117 -20 124 0 14 37 -10 51 -118 68
-58 9 -108 15 -113 15 -4 -1 -28 -5 -53 -9z"/>
<path d="M2666 2289 c-63 -50 3 -137 75 -98 45 23 40 86 -8 108 -32 15 -36 14
-67 -10z"/>
<path d="M1752 2288 c-7 -7 -12 -30 -12 -53 0 -51 13 -65 61 -65 65 0 90 60
44 105 -26 27 -73 33 -93 13z"/>
<path d="M1057 2194 c-8 -9 -7 -117 2 -159 7 -34 40 -45 60 -21 10 12 10 27 2
68 -6 29 -12 67 -14 83 -1 22 -8 31 -22 33 -12 2 -24 0 -28 -4z"/>
<path d="M3970 2125 c-20 -24 -6 -28 15 -5 10 11 13 20 8 20 -6 0 -16 -7 -23
-15z"/>
<path d="M3984 2096 c-17 -18 -13 -45 5 -38 10 4 11 7 3 10 -10 3 -10 7 -1 18
14 18 8 27 -7 10z"/>
<path d="M47 1562 c-9 -10 -17 -32 -17 -49 0 -57 64 -83 111 -44 21 17 22 21
9 37 -9 11 -10 15 -2 10 18 -11 15 9 -5 32 -26 30 -75 37 -96 14z m58 -62 c3
-5 1 -10 -4 -10 -6 0 -11 5 -11 10 0 6 2 10 4 10 3 0 8 -4 11 -10z"/>
<path d="M2963 1465 c-7 -8 -9 -16 -4 -19 5 -3 12 1 15 10 8 22 4 25 -11 9z"/>
<path d="M3945 1460 c10 -11 20 -20 23 -20 3 0 -3 9 -13 20 -10 11 -20 20 -23
20 -3 0 3 -9 13 -20z"/>
<path d="M3898 1463 c-10 -2 -18 -8 -18 -13 0 -5 8 -6 18 -3 15 6 16 5 2 -13
-8 -10 -11 -16 -6 -12 5 4 15 1 22 -7 19 -18 18 -27 -2 -23 -10 2 -19 -4 -21
-12 -4 -12 -3 -12 5 -1 8 11 11 11 16 0 4 -10 7 -11 12 -2 3 7 13 9 22 5 15
-5 15 -4 0 12 -23 22 -23 40 -1 32 13 -5 11 0 -6 18 -14 15 -25 25 -25 25 -1
-1 -9 -3 -18 -6z m32 -24 c0 -5 -4 -9 -8 -9 -5 0 -9 7 -9 15 0 8 4 12 9 9 4
-3 8 -9 8 -15z"/>
<path d="M2995 1450 c3 -5 11 -10 16 -10 6 0 7 5 4 10 -3 6 -11 10 -16 10 -6
0 -7 -4 -4 -10z"/>
<path d="M3036 1451 c-4 -5 -2 -12 3 -15 5 -4 12 -2 15 3 4 5 2 12 -3 15 -5 4
-12 2 -15 -3z"/>
<path d="M3856 1451 c-4 -6 -2 -11 4 -11 6 0 8 -4 5 -10 -3 -5 -1 -10 4 -10
13 0 14 10 2 29 -6 9 -11 10 -15 2z"/>
<path d="M2130 1421 c-42 -9 -77 -27 -107 -54 -45 -41 -22 -149 41 -190 37
-25 133 -49 194 -49 124 -2 187 52 180 149 -5 60 -21 82 -85 118 -48 27 -160
40 -223 26z"/>
<path d="M3045 1396 c0 -13 3 -22 8 -19 4 2 7 13 7 24 0 10 -3 19 -7 19 -5 0
-8 -11 -8 -24z"/>
<path d="M3870 1395 c-7 -9 -8 -15 -2 -15 5 0 12 7 16 15 3 8 4 15 2 15 -2 0
-9 -7 -16 -15z"/>
<path d="M3983 262 c1 -14 5 -18 11 -12 7 7 6 14 -1 21 -9 9 -12 7 -10 -9z"/>
<path d="M3956 215 c-11 -8 -17 -18 -13 -22 4 -3 15 2 26 11 12 11 21 13 24 6
3 -6 5 -6 3 2 -3 18 -19 19 -40 3z"/>
</g>
</svg>
